<?xml version="1.0" encoding="UTF-8"?>
<svg version="1.1" xmlns="http://www.w3.org/2000/svg" width="300" height="300">
<path d="M0 0 C1.28003906 -0.00386719 1.28003906 -0.00386719 2.5859375 -0.0078125 C4.625 0.125 4.625 0.125 5.625 1.125 C5.71131874 2.46767413 5.73206473 3.81474322 5.72265625 5.16015625 C5.71943359 5.96904297 5.71621094 6.77792969 5.71289062 7.61132812 C5.70451172 8.46146484 5.69613281 9.31160156 5.6875 10.1875 C5.68298828 11.04150391 5.67847656 11.89550781 5.67382812 12.77539062 C5.66200373 14.89195663 5.64406769 17.00848685 5.625 19.125 C9.585 19.125 13.545 19.125 17.625 19.125 C17.625 13.185 17.625 7.245 17.625 1.125 C24.32139333 0.16837238 28.50631475 0.33403497 35.625 1.125 C35.955 15.645 36.285 30.165 36.625 45.125 C38.55666016 40.61199219 38.55666016 40.61199219 40.52734375 36.0078125 C41.77158351 33.10198865 43.0160306 30.19625369 44.26049805 27.29052734 C45.1269262 25.26718284 45.99313794 23.24374566 46.85913086 21.22021484 C48.10213584 18.31583801 49.3459124 15.41179268 50.58984375 12.5078125 C50.97841049 11.59943634 51.36697723 10.69106018 51.76731873 9.75515747 C52.30776573 8.49407669 52.30776573 8.49407669 52.85913086 7.20751953 C53.33545204 6.09499313 53.33545204 6.09499313 53.82139587 4.95999146 C54.38808218 3.66599047 54.993245 2.38851001 55.625 1.125 C59.4745591 0.01414719 63.20037912 -0.05300176 67.1875 0.0625 C68.86005859 0.07603516 68.86005859 0.07603516 70.56640625 0.08984375 C73.625 1.125 73.625 1.125 75.67578125 4.296875 C76.35636257 5.89345212 77.00135992 7.5053326 77.625 9.125 C78.05530518 10.19177979 78.48561035 11.25855957 78.92895508 12.35766602 C80.39727085 16.04042474 81.82942697 19.7361601 83.25 23.4375 C84.21719809 25.95608637 85.18922746 28.47262088 86.1640625 30.98828125 C86.58896973 32.09469971 87.01387695 33.20111816 87.45166016 34.34106445 C88.57908815 37.25980094 88.57908815 37.25980094 90.625 40.125 C92.605 36.495 94.585 32.865 96.625 29.125 C101.625 31.125 101.625 31.125 104.08984375 32.16015625 C108.59648179 34.03258248 112.72587331 35.60930245 117.625 36.125 C116.70927805 33.70551166 116.70927805 33.70551166 113.203125 32.9765625 C111.04103841 32.35195971 108.8739548 31.74971426 106.703125 31.15625 C101.48339526 29.64022555 97.42376366 27.88855508 94.3359375 23.14453125 C92.83846756 18.89072928 92.87972384 14.40991853 94.27734375 10.125 C96.69896445 5.30254505 99.79284032 3.36850271 104.625 1.125 C115.0051102 -2.15177208 126.14257747 0.38378874 135.625 5.125 C135.09015599 10.47344008 133.15809233 14.48296103 130.625 19.125 C126.26392511 18.57986564 122.57571138 17.43363188 118.5546875 15.74609375 C116.32825756 14.9207444 116.32825756 14.9207444 112.625 15.125 C113.73875 15.5375 114.8525 15.95 116 16.375 C117.08667969 16.78878906 117.08667969 16.78878906 118.1953125 17.2109375 C119.86998188 17.84095781 121.55298898 18.44910361 123.2421875 19.0390625 C129.25474938 21.23355838 132.6723182 23.2196364 135.625 29.125 C136.16535594 34.0502115 136.16935469 37.99441718 134 42.5 C129.45892002 47.51908839 125.23889947 49.8409177 118.59375 50.36328125 C108.61634281 50.57676181 100.4729352 48.73589581 91.625 44.125 C91.810625 44.929375 91.99625 45.73375 92.1875 46.5625 C92.4040625 47.8309375 92.4040625 47.8309375 92.625 49.125 C91.625 50.125 91.625 50.125 87.80859375 50.22265625 C86.22653318 50.21598089 84.64448841 50.20401875 83.0625 50.1875 C82.25619141 50.18298828 81.44988281 50.17847656 80.61914062 50.17382812 C78.62106244 50.16200518 76.62302217 50.14406914 74.625 50.125 C74.29886719 49.15304688 73.97273438 48.18109375 73.63671875 47.1796875 C71.86589692 43.71180702 71.86589692 43.71180702 67.83203125 43.3203125 C66.36795894 43.26731441 64.9025223 43.24488202 63.4375 43.25 C62.68791016 43.229375 61.93832031 43.20875 61.16601562 43.1875 C59.31949213 43.14045482 57.47211781 43.12925113 55.625 43.125 C55.480625 44.094375 55.33625 45.06375 55.1875 46.0625 C54.625 49.125 54.625 49.125 53.625 50.125 C51.04310554 50.22591475 48.488535 50.26471499 45.90625 50.2578125 C44.74663757 50.25924759 44.74663757 50.25924759 43.56359863 50.26071167 C41.92602456 50.26139341 40.28844781 50.25953957 38.65087891 50.25537109 C36.13568079 50.25002271 33.62066127 50.25531626 31.10546875 50.26171875 C29.51822877 50.26105797 27.9309889 50.2597768 26.34375 50.2578125 C25.58646606 50.25983673 24.82918213 50.26186096 24.0489502 50.26394653 C18.73995132 50.23995132 18.73995132 50.23995132 17.625 49.125 C17.55180379 46.42845146 17.53257463 43.75808542 17.5625 41.0625 C17.56701172 40.30388672 17.57152344 39.54527344 17.57617188 38.76367188 C17.5879932 36.88408129 17.60592922 35.00453101 17.625 33.125 C13.665 33.125 9.705 33.125 5.625 33.125 C5.625 38.735 5.625 44.345 5.625 50.125 C-7.19347134 50.40366242 -7.19347134 50.40366242 -10.375 48.125 C-12.13200956 45.23057728 -12.62184127 43.08801603 -12.60205078 39.72363281 C-12.60189972 38.8630426 -12.60174866 38.00245239 -12.60159302 37.11578369 C-12.59127045 36.19585632 -12.58094788 35.27592896 -12.5703125 34.328125 C-12.5674826 33.37935486 -12.56465271 32.43058472 -12.56173706 31.45306396 C-12.55055448 28.42691361 -12.5254533 25.4010607 -12.5 22.375 C-12.48996772 20.32161886 -12.4808423 18.26823308 -12.47265625 16.21484375 C-12.45062141 11.18478146 -12.41610462 6.15494114 -12.375 1.125 C-8.21465351 0.50935431 -4.20854753 -0.01294938 0 0 Z M63.625 21.125 C62.965 24.095 62.305 27.065 61.625 30.125 C63.605 30.125 65.585 30.125 67.625 30.125 C66.635 27.155 65.645 24.185 64.625 21.125 C64.295 21.125 63.965 21.125 63.625 21.125 Z " fill="#FFFFFF" transform="translate(14.375,124.875)"/>
<path d="M0 0 C5.02021735 3.77659338 7.14219727 7.28439455 10 13 C10.33 7.72 10.66 2.44 11 -3 C22.68077531 -4.40732233 22.68077531 -4.40732233 27 -2 C29.28125 0.35546875 29.28125 0.35546875 31.5 3.1875 C32.2321875 4.10917969 32.964375 5.03085938 33.71875 5.98046875 C36.2074826 9.27463022 38.60030338 12.64042474 41 16 C41.33 9.73 41.66 3.46 42 -3 C54.50308476 -3.37137876 54.50308476 -3.37137876 56.85546875 -1.61328125 C58.80461687 1.13415279 59.12590085 2.83673191 59.12939453 6.15844727 C59.13254669 7.01596085 59.13569885 7.87347443 59.13894653 8.75697327 C59.13591019 10.14764259 59.13591019 10.14764259 59.1328125 11.56640625 C59.13376923 12.51563461 59.13472595 13.46486298 59.13571167 14.44285583 C59.1363928 16.451081 59.13454319 18.45930835 59.13037109 20.4675293 C59.12501601 23.55327255 59.1303214 26.63887063 59.13671875 29.72460938 C59.13605807 31.67187532 59.13477713 33.61914118 59.1328125 35.56640625 C59.13483673 36.49554337 59.13686096 37.42468048 59.13894653 38.38197327 C59.13421829 39.6635154 59.13421829 39.6635154 59.12939453 40.97094727 C59.12859894 41.72658463 59.12780334 42.48222198 59.12698364 43.26075745 C59 45 59 45 58 46 C53.17561994 46.82173507 48.80860227 46.96172045 44 46 C40.11330943 42.905357 37.68622418 39.14081989 35 35 C33.66160663 33.25859599 32.3088586 31.52806414 30.9375 29.8125 C29.968125 28.554375 28.99875 27.29625 28 26 C27.67 32.6 27.34 39.2 27 46 C21.72 46 16.44 46 11 46 C10.67 40.39 10.34 34.78 10 29 C9.2265625 30.794375 9.2265625 30.794375 8.4375 32.625 C5.42245271 38.60219902 1.32933276 41.75214316 -4.5 44.875 C-12.54313513 47.47258839 -22.05332979 47.4144017 -29.6875 43.75 C-32.89467667 41.87692344 -35.63235087 39.90575121 -38 37 C-38.5775 37.928125 -39.155 38.85625 -39.75 39.8125 C-42.96350365 44.3649635 -42.96350365 44.3649635 -46 46 C-49.09257378 46.36195291 -52.14190932 46.28219964 -55.25 46.1875 C-56.09046875 46.17396484 -56.9309375 46.16042969 -57.796875 46.14648438 C-59.86485938 46.11123464 -61.93251271 46.0574302 -64 46 C-62.92598892 43.08482708 -62.22189824 41.22189824 -60 39 C-59.49450279 37.53628007 -59.04135401 36.05402701 -58.625 34.5625 C-57.74139703 31.85510568 -57.12767181 30.15604332 -55.3125 27.9375 C-51.75811974 26.49653503 -48.82660844 26.75312204 -45 27 C-44.34 27.33 -43.68 27.66 -43 28 C-43.05220703 26.96552734 -43.05220703 26.96552734 -43.10546875 25.91015625 C-43.34618264 17.5539455 -42.55012175 9.79857076 -36.65625 3.34765625 C-25.80967066 -5.47798024 -12.23635085 -6.38988612 0 0 Z M-22 14 C-24.5290797 17.03489564 -25 18.51887435 -25 22.5 C-23.79547387 26.71584145 -22.52592004 28.4143253 -19 31 C-16 31.83333333 -16 31.83333333 -13 31 C-9.98905311 28.97088362 -8.30699358 27.47623871 -7.55078125 23.83984375 C-7.3578661 19.85514798 -7.70937828 17.51666083 -9.6875 14 C-14.21571717 10.08370407 -17.36083387 10.33750042 -22 14 Z " fill="#FFFFFF" transform="translate(239,129)"/>
<path d="M0 0 C1.35095757 0.02377051 2.70166734 0.07398592 4.05078125 0.1484375 C4.73978516 0.16261719 5.42878906 0.17679687 6.13867188 0.19140625 C11.17996058 0.34011683 11.17996058 0.34011683 12.36328125 1.5234375 C13.00530685 5.74335335 12.55520345 7.25227838 10.0546875 10.78515625 C9.02588342 11.93986117 7.98199949 13.08125422 6.92578125 14.2109375 C5.81274023 15.45217364 4.70077001 16.69437076 3.58984375 17.9375 C3.03844727 18.54625977 2.48705078 19.15501953 1.91894531 19.78222656 C-0.20004166 22.15394895 -2.20292924 24.6105385 -4.19921875 27.0859375 C-8.03988282 31.81830968 -11.96159686 36.47584943 -15.92016602 41.10961914 C-17.79246908 43.30819577 -19.55499364 45.38360189 -21.015625 47.8828125 C-22.63671875 49.5234375 -22.63671875 49.5234375 -25.921875 49.94921875 C-27.16839844 49.91183594 -28.41492188 49.87445313 -29.69921875 49.8359375 C-31.57287109 49.79919922 -31.57287109 49.79919922 -33.484375 49.76171875 C-36.63671875 49.5234375 -36.63671875 49.5234375 -38.63671875 48.5234375 C-39.11197922 44.49876337 -38.87804582 42.87482776 -36.546875 39.48046875 C-35.61189329 38.4195726 -34.66173911 37.37191336 -33.69921875 36.3359375 C-32.67880139 35.18698428 -31.6592823 34.03723271 -30.640625 32.88671875 C-30.13031738 32.31904785 -29.62000977 31.75137695 -29.09423828 31.16650391 C-27.03436688 28.84440432 -25.08549344 26.43906929 -23.13671875 24.0234375 C-19.29763716 19.30586336 -15.38572821 14.65495496 -11.44140625 10.02539062 C-9.40228977 7.62837612 -7.50143282 5.31362966 -5.79296875 2.6640625 C-3.63671875 0.5234375 -3.63671875 0.5234375 0 0 Z " fill="#FFFFFF" transform="translate(188.63671875,125.4765625)"/>
<path d="M0 0 C0.88365234 0.02255859 1.76730469 0.04511719 2.67773438 0.06835938 C4.8483891 0.12702572 7.0181669 0.21670021 9.1875 0.3125 C8.11348892 3.22767292 7.40939824 5.09060176 5.1875 7.3125 C4.68200279 8.77621993 4.22885401 10.25847299 3.8125 11.75 C2.9179577 14.50448173 2.32575776 16.14955335 0.4375 18.375 C-2.86779366 19.75220569 -5.26762069 19.74783606 -8.8125 19.3125 C-11.56579021 17.51687595 -13.33877461 16.25995078 -14.8125 13.3125 C-15.50202146 6.30236516 -15.50202146 6.30236516 -12.90234375 2.5703125 C-8.57028536 -0.59521184 -5.21357723 -0.25270881 0 0 Z " fill="#FFFFFF" transform="translate(166.8125,125.6875)"/>
</svg>
