<?xml version="1.0" encoding="UTF-8"?>
<svg version="1.1" xmlns="http://www.w3.org/2000/svg" width="300" height="300">
<path d="M0 0 C0.79849365 -0.00807175 1.5969873 -0.01614349 2.41967773 -0.02445984 C4.11781633 -0.03832494 5.81598309 -0.04903618 7.51416016 -0.05688477 C10.08682174 -0.07396528 12.65815325 -0.11781031 15.23046875 -0.16210938 C33.08249741 -0.33259765 33.08249741 -0.33259765 39.68334961 5.65087891 C45.00635314 11.53643034 45.62882896 17.35784352 45.5078125 25.0078125 C44.64761809 32.2668 40.15467436 36.30159246 35.125 41.23828125 C35.4331665 41.76260742 35.74133301 42.28693359 36.05883789 42.82714844 C37.44793041 45.20694627 38.81780361 47.59727176 40.1875 49.98828125 C40.67283203 50.81328125 41.15816406 51.63828125 41.65820312 52.48828125 C42.11259766 53.2875 42.56699219 54.08671875 43.03515625 54.91015625 C43.45933838 55.64331055 43.88352051 56.37646484 44.32055664 57.13183594 C45.27014362 59.61834169 45.02253304 60.77675431 44.125 63.23828125 C39.55615664 63.57987701 35.02378612 63.81906996 30.44140625 63.72265625 C29.69318604 63.70944336 28.94496582 63.69623047 28.17407227 63.68261719 C25.5331262 63.10993497 24.5614331 62.05849909 22.875 59.98828125 C22.24686934 58.42217969 21.66947076 56.83539547 21.125 55.23828125 C20.03959164 53.06215691 18.93465687 50.89568535 17.8125 48.73828125 C16.91267674 46.90690292 16.01544005 45.07424012 15.125 43.23828125 C12.65 43.73328125 12.65 43.73328125 10.125 44.23828125 C10.13660156 45.44226563 10.14820312 46.64625 10.16015625 47.88671875 C10.16953434 49.46223804 10.17863452 51.037759 10.1875 52.61328125 C10.19587891 53.40734375 10.20425781 54.20140625 10.21289062 55.01953125 C10.23828125 61.01171875 10.23828125 61.01171875 9.125 63.23828125 C6.31243719 63.26512437 3.50012759 63.28504313 0.6875 63.30078125 C-0.11494141 63.30916016 -0.91738281 63.31753906 -1.74414062 63.32617188 C-3.78795221 63.33479555 -5.83183902 63.29056275 -7.875 63.23828125 C-9.64223811 61.47104314 -9.00262833 58.93509285 -9.00439453 56.54101562 C-9.00754669 55.32305298 -9.01069885 54.10509033 -9.01394653 52.85021973 C-9.01215675 51.5108232 -9.0101058 50.17142701 -9.0078125 48.83203125 C-9.0084856 47.46822085 -9.00945567 46.10441057 -9.01071167 44.74060059 C-9.01218838 41.87897604 -9.01003497 39.01738265 -9.00537109 36.15576172 C-8.99967381 32.48009511 -9.00295296 28.80450151 -9.00894356 25.12883759 C-9.01254991 22.31166021 -9.01141025 19.49450027 -9.00881577 16.67732239 C-9.0081467 15.32168062 -9.00897421 13.96603729 -9.01129532 12.61039734 C-9.01382301 10.71878081 -9.00929014 8.82715876 -9.00439453 6.93554688 C-9.00359894 5.85712524 -9.00280334 4.77870361 -9.00198364 3.66760254 C-8.7315099 -1.50682468 -4.11996663 0.03922224 0 0 Z M10.125 16.23828125 C9.18713918 21.2883772 9.18713918 21.2883772 10.125 26.23828125 C12.39479665 26.34622402 14.66605196 26.42384301 16.9375 26.48828125 C18.20207031 26.5346875 19.46664062 26.58109375 20.76953125 26.62890625 C24.16190449 26.56923576 24.16190449 26.56923576 26.11328125 24.390625 C27.41041417 22.20817245 27.41041417 22.20817245 26.5 19.55078125 C25.28103006 16.92706288 25.28103006 16.92706288 22.125 16.23828125 C20.06354893 16.16929025 17.99998599 16.15360398 15.9375 16.17578125 C14.85082031 16.18480469 13.76414062 16.19382813 12.64453125 16.203125 C11.81308594 16.21472656 10.98164062 16.22632813 10.125 16.23828125 Z " fill="#FFFFFF" transform="translate(84.875,119.76171875)"/>
<path d="M0 0 C3.97955837 2.95279204 7.24522079 5.86783118 10 10 C9.98828125 11.9765625 9.98828125 11.9765625 9 14 C6.41796875 15.7734375 6.41796875 15.7734375 3.1875 17.375 C2.12917969 17.91898438 1.07085937 18.46296875 -0.01953125 19.0234375 C-3 20 -3 20 -5.22265625 19.29296875 C-7.54498737 17.60353666 -9.77496617 15.81515917 -12 14 C-15.48702777 12.25648612 -19.26996241 13.28243644 -23 14 C-26.5176157 15.45292823 -27.70402399 16.53489484 -29.75 19.75 C-32.07955679 25.80684765 -32.53687455 30.23576145 -30.02734375 36.203125 C-28.12342364 39.53317538 -25.35732438 41.32133781 -22 43 C-20.37834248 43.12148305 -18.75115673 43.17543652 -17.125 43.1875 C-16.26132813 43.20167969 -15.39765625 43.21585938 -14.5078125 43.23046875 C-11.83924491 42.98522656 -10.24795361 42.4364726 -8 41 C-7.505 40.01 -7.505 40.01 -7 39 C-10.3 39 -13.6 39 -17 39 C-18.95387664 35.09224671 -19.34762234 33.00312413 -19.625 28.75 C-19.69976562 27.67234375 -19.77453125 26.5946875 -19.8515625 25.484375 C-19.90054688 24.66453125 -19.94953125 23.8446875 -20 23 C-16.70898498 22.79970499 -13.41719893 22.61719549 -10.125 22.4375 C-8.74828125 22.35338867 -8.74828125 22.35338867 -7.34375 22.26757812 C-1.12165823 21.93894652 4.82183958 22.1947736 11 23 C11.23355931 27.18655065 11.37482637 31.37141874 11.5 35.5625 C11.60054687 37.33463867 11.60054687 37.33463867 11.703125 39.14257812 C11.89611843 47.75490985 11.89611843 47.75490985 9.33300781 51.31616211 C-0.1293079 59.75365047 -10.02244974 60.80723598 -22.26171875 60.3828125 C-31.08211891 59.83358844 -38.06222845 56.58910874 -44 50 C-50.79793298 41.12291198 -51.96865682 31.99854642 -51 21 C-49.01352522 12.3285023 -43.94579701 6.17379325 -37.125 0.6875 C-25.7056706 -5.47893788 -11.48527423 -6.94364558 0 0 Z " fill="#FFFFFF" transform="translate(215,123)"/>
<path d="M0 0 C6.4834556 5.25915774 10.92927943 12.02215044 12.50390625 20.3046875 C13.30379329 30.79551371 12.09430371 40.1457165 5.30859375 48.484375 C-2.27851696 56.13717498 -10.58133485 58.73327858 -21.12109375 58.8046875 C-30.92327789 58.81181442 -38.03275108 56.97899164 -45.6328125 50.4765625 C-52.14622028 43.75833058 -55.63992302 34.65358998 -55.49609375 25.3046875 C-54.55568606 16.03082086 -51.13898171 7.25329344 -44.00390625 0.99609375 C-31.624641 -8.6163772 -12.8781377 -8.74665378 0 0 Z M-33.30859375 16.2421875 C-35.72040665 19.52931744 -35.72040665 19.52931744 -36.49609375 23.3046875 C-36.59921875 24.3771875 -36.70234375 25.4496875 -36.80859375 26.5546875 C-36.3726004 31.78660775 -34.92105564 36.06191186 -30.98828125 39.69921875 C-26.4628796 42.67756449 -21.78912718 43.25125187 -16.49609375 42.3046875 C-11.67449986 39.93937729 -8.79287628 37.16326594 -6.49609375 32.3046875 C-5.73112278 27.13723053 -5.69288033 22.1190967 -8.05859375 17.3671875 C-11.80687915 12.65780328 -15.06848385 10.60281503 -21.05859375 9.8671875 C-26.3399514 10.53936029 -29.80258135 12.27406458 -33.30859375 16.2421875 Z " fill="#FFFFFF" transform="translate(286.49609375,124.6953125)"/>
<path d="M0 0 C8.36954256 5.84876663 12.99458341 13.01619941 15 23 C16.16632138 32.72402886 13.78631114 41.31255781 8.25 49.375 C3.40683249 55.34334784 -3.47242892 59.35182797 -11.16113281 60.25341797 C-22.11410359 60.95737687 -31.92482021 60.93816728 -41 54 C-47.68559298 48.07785157 -51.83619529 41.66100222 -52.46875 32.6328125 C-52.50230548 31.13054694 -52.51223844 29.62759043 -52.5 28.125 C-52.49645508 27.33778564 -52.49291016 26.55057129 -52.48925781 25.73950195 C-52.30344409 19.20841887 -50.79283743 14.38516567 -47 9 C-46.443125 8.0925 -45.88625 7.185 -45.3125 6.25 C-33.43772985 -5.30383041 -14.56542153 -8.07611177 0 0 Z M-30.25 16.875 C-33.7562574 21.13259827 -34.51442934 25.24045511 -34.37890625 30.65234375 C-33.50689638 36.05520904 -30.59693504 39.8385927 -26.25 43 C-20.53255474 44.75921392 -16.00583408 45.04006211 -10.625 42.25 C-6.79441843 38.96664437 -4.31955334 36.17095237 -3.796875 30.984375 C-3.68488763 25.64631058 -4.22395377 21.7192786 -7 17 C-14.42124841 10.28553715 -22.76742048 10.63951707 -30.25 16.875 Z " fill="#FFFFFF" transform="translate(54,123)"/>
<path d="M0 0 C0.804375 -0.00128906 1.60875 -0.00257812 2.4375 -0.00390625 C3.283125 -0.00003906 4.12875 0.00382812 5 0.0078125 C6.2684375 0.00201172 6.2684375 0.00201172 7.5625 -0.00390625 C8.366875 -0.00261719 9.17125 -0.00132813 10 0 C10.7425 0.00112793 11.485 0.00225586 12.25 0.00341797 C14 0.1328125 14 0.1328125 15 1.1328125 C15.0991056 2.99917038 15.12799261 4.86929444 15.12939453 6.73828125 C15.13254669 7.93622314 15.13569885 9.13416504 15.13894653 10.3684082 C15.1369223 11.67253662 15.13489807 12.97666504 15.1328125 14.3203125 C15.1334856 15.66170265 15.13445568 17.00309269 15.13571167 18.34448242 C15.13718836 21.15902871 15.13503504 23.97354332 15.13037109 26.78808594 C15.12467381 30.40321881 15.12795297 34.01827745 15.13394356 37.63340759 C15.13754997 40.40426192 15.13641022 43.17509852 15.13381577 45.94595337 C15.13282033 47.92970833 15.13586741 49.91346397 15.13894653 51.8972168 C15.13579437 53.09515869 15.13264221 54.29310059 15.12939453 55.52734375 C15.12859894 56.58800049 15.12780334 57.64865723 15.12698364 58.74145508 C15 61.1328125 15 61.1328125 14 62.1328125 C12.66956375 62.2311846 11.33406656 62.26359842 10 62.265625 C9.195625 62.26691406 8.39125 62.26820313 7.5625 62.26953125 C6.716875 62.26566406 5.87125 62.26179688 5 62.2578125 C4.154375 62.26167969 3.30875 62.26554687 2.4375 62.26953125 C1.633125 62.26824219 0.82875 62.26695312 0 62.265625 C-0.7425 62.26449707 -1.485 62.26336914 -2.25 62.26220703 C-4 62.1328125 -4 62.1328125 -5 61.1328125 C-5.0991056 59.26645462 -5.12799261 57.39633056 -5.12939453 55.52734375 C-5.13254669 54.32940186 -5.13569885 53.13145996 -5.13894653 51.8972168 C-5.1369223 50.59308838 -5.13489807 49.28895996 -5.1328125 47.9453125 C-5.1334856 46.60392235 -5.13445568 45.26253231 -5.13571167 43.92114258 C-5.13718836 41.10659629 -5.13503504 38.29208168 -5.13037109 35.47753906 C-5.12467381 31.86240619 -5.12795297 28.24734755 -5.13394356 24.63221741 C-5.13754997 21.86136308 -5.13641022 19.09052648 -5.13381577 16.31967163 C-5.13282033 14.33591667 -5.13586741 12.35216103 -5.13894653 10.3684082 C-5.13579437 9.17046631 -5.13264221 7.97252441 -5.12939453 6.73828125 C-5.12859894 5.67762451 -5.12780334 4.61696777 -5.12698364 3.52416992 C-4.91767999 -0.41743882 -3.54102866 0.00537917 0 0 Z " fill="#FFFFFF" transform="translate(142,119.8671875)"/>
</svg>
