<?xml version="1.0" encoding="UTF-8"?>
<svg version="1.1" xmlns="http://www.w3.org/2000/svg" width="300" height="64">
<path d="M0 0 C15.33333333 0 30.66666667 0 46 0 C46.495 2.475 46.495 2.475 47 5 C47 3.35 47 1.7 47 0 C48.32 0.33 49.64 0.66 51 1 C51 4.3 51 7.6 51 11 C51.33 7.37 51.66 3.74 52 0 C53.32 0.33 54.64 0.66 56 1 C57.32 0.67 58.64 0.34 60 0 C60.495 5.94 60.495 5.94 61 12 C61.99 12 62.98 12 64 12 C64 10.35 64 8.7 64 7 C63.67 8.32 63.34 9.64 63 11 C62.34 11 61.68 11 61 11 C61 7.37 61 3.74 61 0 C61.66 0.33 62.32 0.66 63 1 C63.33 0.67 63.66 0.34 64 0 C64.99 0 65.98 0 67 0 C67.495 3.465 67.495 3.465 68 7 C68 4.69 68 2.38 68 0 C69.98 0 71.96 0 74 0 C74.495 3.96 74.495 3.96 75 8 C75 5.69 75 3.38 75 1 C78.73437848 0.12132271 82.16774573 -0.08912219 86 0 C86 3.63 86 7.26 86 11 C86.33 7.37 86.66 3.74 87 0 C93.6 0 100.2 0 107 0 C107.495 3.465 107.495 3.465 108 7 C108 4.69 108 2.38 108 0 C109.98 0 111.96 0 114 0 C114.495 3.96 114.495 3.96 115 8 C115 5.69 115 3.38 115 1 C119.875 -0 119.875 -0 121 0 C121.495 2.475 121.495 2.475 122 5 C122 3.35 122 1.7 122 0 C123.32 0 124.64 0 126 0 C126 21.12 126 42.24 126 64 C124.68 64 123.36 64 122 64 C122 60.37 122 56.74 122 53 C121.67 56.63 121.34 60.26 121 64 C119.02 64 117.04 64 115 64 C115.01160156 63.07316406 115.02320313 62.14632812 115.03515625 61.19140625 C115.04417969 59.99386719 115.05320312 58.79632813 115.0625 57.5625 C115.07410156 56.36753906 115.08570313 55.17257813 115.09765625 53.94140625 C115.33901792 51.11126659 115.33901792 51.11126659 114 50 C114 54.62 114 59.24 114 64 C112.02 64 110.04 64 108 64 C108 61.03 108 58.06 108 55 C107.67 57.97 107.34 60.94 107 64 C100.4 64 93.8 64 87 64 C86.505 53.605 86.505 53.605 86 43 C86 49.93 86 56.86 86 64 C82.37 64 78.74 64 75 64 C75 60.7 75 57.4 75 54 C74.505 58.95 74.505 58.95 74 64 C72.02 64 70.04 64 68 64 C68 60.37 68 56.74 68 53 C67.67 56.63 67.34 60.26 67 64 C65.02 64 63.04 64 61 64 C61 62.68 61 61.36 61 60 C61.99 60 62.98 60 64 60 C64 58.35 64 56.7 64 55 C63.67 56.32 63.34 57.64 63 59 C62.34 59 61.68 59 61 59 C60.67 60.65 60.34 62.3 60 64 C57.36 64 54.72 64 52 64 C52 50.14 52 36.28 52 22 C51.06968682 26.65156591 50.87137665 30.88098353 50.90234375 35.58203125 C50.90446617 36.80329964 50.90446617 36.80329964 50.90663147 38.04924011 C50.91220683 40.63703156 50.92475476 43.22473492 50.9375 45.8125 C50.94251819 47.57226437 50.94708054 49.33203011 50.95117188 51.09179688 C50.96131519 55.39459209 50.9808953 59.697198 51 64 C44.4 64 37.8 64 31 64 C31 57.07 31 50.14 31 43 C29.515 43.495 29.515 43.495 28 44 C28.66 44 29.32 44 30 44 C30.02685095 46.47923801 30.04676547 48.9581884 30.0625 51.4375 C30.07087891 52.14455078 30.07925781 52.85160156 30.08789062 53.58007812 C30.09653588 55.38693559 30.05220011 57.19387603 30 59 C29.67 59.33 29.34 59.66 29 60 C29.33 61.32 29.66 62.64 30 64 C27.03 64 24.06 64 21 64 C21 57.07 21 50.14 21 43 C20.67 49.93 20.34 56.86 20 64 C18.02 64 16.04 64 14 64 C14.00523682 63.27820557 14.01047363 62.55641113 14.01586914 61.81274414 C14.03657358 58.56267151 14.04963918 55.31261272 14.0625 52.0625 C14.07087891 50.92619141 14.07925781 49.78988281 14.08789062 48.61914062 C14.09111328 47.53955078 14.09433594 46.45996094 14.09765625 45.34765625 C14.10289307 44.34742432 14.10812988 43.34719238 14.11352539 42.31665039 C14.26181095 40.03792772 14.26181095 40.03792772 13 39 C13 47.25 13 55.5 13 64 C8.71 64 4.42 64 0 64 C0 42.88 0 21.76 0 0 Z M84 5 C85 8 85 8 85 8 Z M98 5 C99 7 99 7 99 7 Z M48 7 C48 8.65 48 10.3 48 12 C48.33 12 48.66 12 49 12 C49 10.35 49 8.7 49 7 C48.67 7 48.34 7 48 7 Z M55 10 C55.33 10.66 55.66 11.32 56 12 C56.33 11.34 56.66 10.68 57 10 C56.34 10 55.68 10 55 10 Z M70 10 C71 12 71 12 71 12 Z M98 10 C99 12 99 12 99 12 Z M13 11 C13 16.28 13 21.56 13 27 C15.05279359 22.89441282 15.2216942 21.19793315 15.125 16.75 C15.10695313 15.67234375 15.08890625 14.5946875 15.0703125 13.484375 C15.04710938 12.66453125 15.02390625 11.8446875 15 11 C14.34 11 13.68 11 13 11 Z M18 11 C18 16.28 18 21.56 18 27 C18.33 27 18.66 27 19 27 C19 21.72 19 16.44 19 11 C18.67 11 18.34 11 18 11 Z M20 11 C20 16.28 20 21.56 20 27 C20.33 27 20.66 27 21 27 C21.33 21.72 21.66 16.44 22 11 C21.34 11 20.68 11 20 11 Z M23 11 C23 16.28 23 21.56 23 27 C23.33 27 23.66 27 24 27 C24 21.72 24 16.44 24 11 C23.67 11 23.34 11 23 11 Z M25 11 C25 16.28 25 21.56 25 27 C25.33 27 25.66 27 26 27 C26 21.72 26 16.44 26 11 C25.67 11 25.34 11 25 11 Z M56 12 C57 15 57 15 57 15 Z M30 13 C28.7619986 16.57644848 29.25073929 19.33694766 30 23 C29.01 23.495 29.01 23.495 28 24 C28.99 24 29.98 24 31 24 C31 20.37 31 16.74 31 13 C30.67 13 30.34 13 30 13 Z M32 16 C32 17.65 32 19.3 32 21 C32.33 21 32.66 21 33 21 C33 19.35 33 17.7 33 16 C32.67 16 32.34 16 32 16 Z M67 16 C67 26.23 67 36.46 67 47 C69.29261997 45.13910279 69.29261997 45.13910279 69.22705078 42.20263672 C69.21657715 41.04006348 69.20610352 39.87749023 69.1953125 38.6796875 C69.18564453 36.79443359 69.18564453 36.79443359 69.17578125 34.87109375 C69.15902344 33.55238281 69.14226562 32.23367187 69.125 30.875 C69.11496983 29.53516279 69.10584404 28.19531848 69.09765625 26.85546875 C69.07402075 23.57013427 69.04107234 20.28515535 69 17 C68.34 16.67 67.68 16.34 67 16 Z M105 16 C105 26.23 105 36.46 105 47 C105.33 47 105.66 47 106 47 C106 36.77 106 26.54 106 16 C105.67 16 105.34 16 105 16 Z M107 16 C107 26.23 107 36.46 107 47 C108.8309477 43.3381046 109.25069123 42.28189769 109.23046875 38.48046875 C109.22853516 37.62259766 109.22660156 36.76472656 109.22460938 35.88085938 C109.21236328 34.99205078 109.20011719 34.10324219 109.1875 33.1875 C109.1865332 31.87168945 109.1865332 31.87168945 109.18554688 30.52929688 C109.15227904 25.58717558 108.83084794 20.87209231 108 16 C107.67 16 107.34 16 107 16 Z M65 17 C65 26.9 65 36.8 65 47 C65.33 47 65.66 47 66 47 C66 37.1 66 27.2 66 17 C65.67 17 65.34 17 65 17 Z M72 17 C72 26.57 72 36.14 72 46 C72.33 46 72.66 46 73 46 C73 36.43 73 26.86 73 17 C72.67 17 72.34 17 72 17 Z M62 18 C62 18.66 62 19.32 62 20 C62.66 19.67 63.32 19.34 64 19 C63.34 18.67 62.68 18.34 62 18 Z M74 18 C74 26.91 74 35.82 74 45 C76.09918329 41.85122507 76.25543871 41.070235 76.265625 37.47265625 C76.26820313 36.59802734 76.27078125 35.72339844 76.2734375 34.82226562 C76.26183594 33.45618164 76.26183594 33.45618164 76.25 32.0625 C76.25773437 31.15564453 76.26546875 30.24878906 76.2734375 29.31445312 C76.26957031 28.00057617 76.26957031 28.00057617 76.265625 26.66015625 C76.26336914 25.86230713 76.26111328 25.06445801 76.25878906 24.24243164 C76.08279927 21.59605913 76.08279927 21.59605913 74 18 Z M100 18 C100 27.24 100 36.48 100 46 C100.33 46 100.66 46 101 46 C101 36.76 101 27.52 101 18 C100.67 18 100.34 18 100 18 Z M60 19 C60 27.58 60 36.16 60 45 C61.32 44.67 62.64 44.34 64 44 C64 42.35 64 40.7 64 39 C63.34 39.33 62.68 39.66 62 40 C61.67 40.99 61.34 41.98 61 43 C61 38.05 61 33.1 61 28 C61.99 28 62.98 28 64 28 C64 26.35 64 24.7 64 23 C63.01 23.495 63.01 23.495 62 24 C61.67 24.99 61.34 25.98 61 27 C61 24.36 61 21.72 61 19 C60.67 19 60.34 19 60 19 Z M46 20 C46 32.21 46 44.42 46 57 C46.33 56.01 46.66 55.02 47 54 C47.99 53.505 47.99 53.505 49 53 C48.34 53 47.68 53 47 53 C47 48.05 47 43.1 47 38 C47.66 37.67 48.32 37.34 49 37 C48.34 37 47.68 37 47 37 C47 32.05 47 27.1 47 22 C47.66 21.67 48.32 21.34 49 21 C48.01 20.67 47.02 20.34 46 20 Z M114 20 C114 27.92 114 35.84 114 44 C116.44986932 41.55013068 116.25631311 40.862922 116.265625 37.5 C116.26820313 36.613125 116.27078125 35.72625 116.2734375 34.8125 C116.26570313 33.884375 116.25796875 32.95625 116.25 32 C116.26160156 30.6078125 116.26160156 30.6078125 116.2734375 29.1875 C116.27085937 28.300625 116.26828125 27.41375 116.265625 26.5 C116.26336914 25.6853125 116.26111328 24.870625 116.25878906 24.03125 C116.18174293 21.77369549 116.18174293 21.77369549 114 20 Z M16 21 C17 24 17 24 17 24 Z M98 21 C99 23 99 23 99 23 Z M58 22 C58 29.26 58 36.52 58 44 C58.33 44 58.66 44 59 44 C59 36.74 59 29.48 59 22 C58.67 22 58.34 22 58 22 Z M48 23 C48 24.65 48 26.3 48 28 C48.33 28 48.66 28 49 28 C49 26.35 49 24.7 49 23 C48.67 23 48.34 23 48 23 Z M79 23 C79 28.61 79 34.22 79 40 C79.33 40 79.66 40 80 40 C80 34.39 80 28.78 80 23 C79.67 23 79.34 23 79 23 Z M44 25 C42.81774763 31.83079148 43.25535054 38.12631267 44 45 C44.33 45 44.66 45 45 45 C45 38.4 45 31.8 45 25 C44.67 25 44.34 25 44 25 Z M70 26 C71 29 71 29 71 29 Z M93 26 C93 29.96 93 33.92 93 38 C93.33 38 93.66 38 94 38 C94 34.04 94 30.08 94 26 C93.67 26 93.34 26 93 26 Z M98 26 C99 28 99 28 99 28 Z M39 30 C40 33 40 33 40 33 Z M62 31 C62 32.65 62 34.3 62 36 C62.66 35.67 63.32 35.34 64 35 C64 33.68 64 32.36 64 31 C63.34 31 62.68 31 62 31 Z M98 37 C99 39 99 39 99 39 Z M48 39 C48 40.65 48 42.3 48 44 C48.33 44 48.66 44 49 44 C49 42.35 49 40.7 49 39 C48.67 39 48.34 39 48 39 Z M70 42 C71 45 71 45 71 45 Z M98 42 C99 44 99 44 99 44 Z M16 53 C17 56 17 56 17 56 Z M84 53 C85 56 85 56 85 56 Z M98 53 C99 55 99 55 99 55 Z M48 55 C48 56.65 48 58.3 48 60 C48.33 60 48.66 60 49 60 C49 58.35 49 56.7 49 55 C48.67 55 48.34 55 48 55 Z M70 58 C71 61 71 61 71 61 Z M98 58 C99 60 99 60 99 60 Z " fill="#BABABA" transform="translate(53,0)"/>
<path d="M0 0 C1.98 0 3.96 0 6 0 C6.33 3.96 6.66 7.92 7 12 C7 8.04 7 4.08 7 0 C8.32 0 9.64 0 11 0 C11 3.96 11 7.92 11 12 C11.33 8.04 11.66 4.08 12 0 C12.33 0 12.66 0 13 0 C13 4.62 13 9.24 13 14 C13.72437834 10.37810828 14.11585593 7.76234736 14.0625 4.1875 C14.041875 2.805625 14.02125 1.42375 14 0 C17.3 0 20.6 0 24 0 C24.33 1.65 24.66 3.3 25 5 C25.33 3.35 25.66 1.7 26 0 C27.98 0 29.96 0 32 0 C32 3.63 32 7.26 32 11 C32.33 7.37 32.66 3.74 33 0 C39.6 0 46.2 0 53 0 C53.495 3.465 53.495 3.465 54 7 C54 4.69 54 2.38 54 0 C55.98 0 57.96 0 60 0 C60 4.29 60 8.58 60 13 C60.84728203 8.76358987 61.08384078 5.27587998 61 1 C65.875 0 65.875 0 67 0 C67.33 12.21 67.66 24.42 68 37 C68 24.79 68 12.58 68 0 C69.98 0 71.96 0 74 0 C74.33 6.6 74.66 13.2 75 20 C75 13.4 75 6.8 75 0 C76.32 0.33 77.64 0.66 79 1 C80.34262065 0.70630173 81.67696283 0.3721042 83 0 C84.32 0 85.64 0 87 0 C87 3.63 87 7.26 87 11 C87.33 7.37 87.66 3.74 88 0 C91.96 0 95.92 0 100 0 C100.495 3.465 100.495 3.465 101 7 C101 4.69 101 2.38 101 0 C106.61 0 112.22 0 118 0 C118 21.12 118 42.24 118 64 C112.39 64 106.78 64 101 64 C101 60.37 101 56.74 101 53 C100.67 56.63 100.34 60.26 100 64 C96.04 64 92.08 64 88 64 C87.505 60.04 87.505 60.04 87 56 C87 58.64 87 61.28 87 64 C83.04 64 79.08 64 75 64 C75 59.71 75 55.42 75 51 C74.67 55.29 74.34 59.58 74 64 C72.02 64 70.04 64 68 64 C68 60.37 68 56.74 68 53 C67.67 56.63 67.34 60.26 67 64 C65.02 64 63.04 64 61 64 C61 60.04 61 56.08 61 52 C60.67 55.96 60.34 59.92 60 64 C58.02 64 56.04 64 54 64 C54 61.03 54 58.06 54 55 C53.67 57.97 53.34 60.94 53 64 C46.4 64 39.8 64 33 64 C32.67 51.79 32.34 39.58 32 27 C32 39.21 32 51.42 32 64 C30.02 64 28.04 64 26 64 C25.67 49.81 25.34 35.62 25 21 C25 35.19 25 49.38 25 64 C21.37 64 17.74 64 14 64 C14 49.81 14 35.62 14 21 C13.67 35.19 13.34 49.38 13 64 C12.67 64 12.34 64 12 64 C11.67 52.12 11.34 40.24 11 28 C11 39.88 11 51.76 11 64 C9.68 64 8.36 64 7 64 C7 61.03 7 58.06 7 55 C6.67 57.97 6.34 60.94 6 64 C4.02 64 2.04 64 0 64 C0 42.88 0 21.76 0 0 Z M30 5 C31 8 31 8 31 8 Z M82 5 C83 8 83 8 83 8 Z M105 5 C106 8 106 8 106 8 Z M21 6 C22 8 22 8 22 8 Z M96 6 C97 8 97 8 97 8 Z M16 7 C17 9 17 9 17 9 Z M91 7 C92 9 92 9 92 9 Z M16 10 C17 12 17 12 17 12 Z M82 10 C83 12 83 12 83 12 Z M91 10 C92 12 92 12 92 12 Z M87 16 C86.79375 17.27875 86.5875 18.5575 86.375 19.875 C86.25898438 20.59429688 86.14296875 21.31359375 86.0234375 22.0546875 C86.01570313 22.69664063 86.00796875 23.33859375 86 24 C86.66 24.66 87.32 25.32 88 26 C88 22.7 88 19.4 88 16 C87.67 16 87.34 16 87 16 Z M32 17 C33 20 33 20 33 20 Z M51 17 C51 26.9 51 36.8 51 47 C51.33 47 51.66 47 52 47 C52 37.1 52 27.2 52 17 C51.67 17 51.34 17 51 17 Z M53 17 C53 26.9 53 36.8 53 47 C54.83555581 43.32888838 55.25060136 42.26103444 55.23046875 38.4453125 C55.22853516 37.58292969 55.22660156 36.72054687 55.22460938 35.83203125 C55.21236328 34.93871094 55.20011719 34.04539062 55.1875 33.125 C55.1865332 31.79662109 55.1865332 31.79662109 55.18554688 30.44140625 C55.1547844 25.8543798 54.9306137 21.51161521 54 17 C53.67 17 53.34 17 53 17 Z M60 17 C60 26.57 60 36.14 60 46 C62.26839977 44.16044022 62.26839977 44.16044022 62.22705078 41.38623047 C62.21657715 40.30744629 62.20610352 39.22866211 62.1953125 38.1171875 C62.18886719 36.95058594 62.18242187 35.78398438 62.17578125 34.58203125 C62.15902344 33.35871094 62.14226562 32.13539062 62.125 30.875 C62.11146484 29.02841797 62.11146484 29.02841797 62.09765625 27.14453125 C62.07402548 24.09616185 62.04108054 21.04817618 62 18 C61.34 17.67 60.68 17.34 60 17 Z M79 18 C79 20.97 79 23.94 79 27 C79.33 27 79.66 27 80 27 C80 24.03 80 21.06 80 18 C79.67 18 79.34 18 79 18 Z M94 18 C94 20.64 94 23.28 94 26 C94.33 26 94.66 26 95 26 C95 23.36 95 20.72 95 18 C94.67 18 94.34 18 94 18 Z M82 21 C83 24 83 24 83 24 Z M105 21 C106 24 106 24 106 24 Z M21 22 C22 24 22 24 22 24 Z M96 22 C97 24 97 24 97 24 Z M16 23 C17 25 17 25 17 25 Z M91 23 C92 25 92 25 92 25 Z M16 26 C17 28 17 28 17 28 Z M86 30 C86 35.61 86 41.22 86 47 C86.66 47 87.32 47 88 47 C88 41.39 88 35.78 88 30 C87.34 30 86.68 30 86 30 Z M94 31 C94 34.96 94 38.92 94 43 C94.33 43 94.66 43 95 43 C95 39.04 95 35.08 95 31 C94.67 31 94.34 31 94 31 Z M82 32 C83 34 83 34 83 34 Z M79 33 C79 36.63 79 40.26 79 44 C79.33 44 79.66 44 80 44 C80 40.37 80 36.74 80 33 C79.67 33 79.34 33 79 33 Z M30 37 C31 40 31 40 31 40 Z M82 37 C83 40 83 40 83 40 Z M105 37 C106 40 106 40 106 40 Z M21 38 C22 40 22 40 22 40 Z M96 38 C97 40 97 40 97 40 Z M16 39 C17 41 17 41 17 41 Z M91 39 C92 41 92 41 92 41 Z M16 42 C17 44 17 44 17 44 Z M82 42 C83 45 83 45 83 45 Z M91 42 C92 44 92 44 92 44 Z M30 53 C31 56 31 56 31 56 Z M44 53 C45 55 45 55 45 55 Z M82 53 C83 56 83 56 83 56 Z M105 53 C106 56 106 56 106 56 Z M21 54 C22 56 22 56 22 56 Z M96 54 C97 56 97 56 97 56 Z M16 55 C17 57 17 57 17 57 Z M91 55 C92 57 92 57 92 57 Z M16 58 C17 60 17 60 17 60 Z M44 58 C45 60 45 60 45 60 Z M82 58 C83 61 83 61 83 61 Z M91 58 C92 60 92 60 92 60 Z " fill="#C2C2C2" transform="translate(182,0)"/>
<path d="M0 0 C15.33333333 0 30.66666667 0 46 0 C47.04955236 14.74995908 47.07661836 29.4608693 46.96289062 44.23901367 C46.95866089 45.0273056 46.95443115 45.81559753 46.95007324 46.6277771 C46.94195896 48.11082043 46.92965208 49.59384954 46.91223145 51.07681274 C46.89054904 55.57089203 47.35348578 59.47440044 48 64 C42.39 64 36.78 64 31 64 C31 57.07 31 50.14 31 43 C29.515 43.495 29.515 43.495 28 44 C28.66 44 29.32 44 30 44 C30.02685095 46.47923801 30.04676547 48.9581884 30.0625 51.4375 C30.07087891 52.14455078 30.07925781 52.85160156 30.08789062 53.58007812 C30.09653588 55.38693559 30.05220011 57.19387603 30 59 C29.67 59.33 29.34 59.66 29 60 C29.33 61.32 29.66 62.64 30 64 C27.03 64 24.06 64 21 64 C21 57.07 21 50.14 21 43 C20.67 49.93 20.34 56.86 20 64 C18.02 64 16.04 64 14 64 C14.00523682 63.27820557 14.01047363 62.55641113 14.01586914 61.81274414 C14.03657358 58.56267151 14.04963918 55.31261272 14.0625 52.0625 C14.07087891 50.92619141 14.07925781 49.78988281 14.08789062 48.61914062 C14.09111328 47.53955078 14.09433594 46.45996094 14.09765625 45.34765625 C14.10289307 44.34742432 14.10812988 43.34719238 14.11352539 42.31665039 C14.26181095 40.03792772 14.26181095 40.03792772 13 39 C13 47.25 13 55.5 13 64 C8.71 64 4.42 64 0 64 C0 42.88 0 21.76 0 0 Z M13 11 C13 16.28 13 21.56 13 27 C15.05279359 22.89441282 15.2216942 21.19793315 15.125 16.75 C15.10695313 15.67234375 15.08890625 14.5946875 15.0703125 13.484375 C15.04710938 12.66453125 15.02390625 11.8446875 15 11 C14.34 11 13.68 11 13 11 Z M18 11 C18 16.28 18 21.56 18 27 C18.33 27 18.66 27 19 27 C19 21.72 19 16.44 19 11 C18.67 11 18.34 11 18 11 Z M20 11 C20 16.28 20 21.56 20 27 C20.33 27 20.66 27 21 27 C21.33 21.72 21.66 16.44 22 11 C21.34 11 20.68 11 20 11 Z M23 11 C23 16.28 23 21.56 23 27 C23.33 27 23.66 27 24 27 C24 21.72 24 16.44 24 11 C23.67 11 23.34 11 23 11 Z M25 11 C25 16.28 25 21.56 25 27 C25.33 27 25.66 27 26 27 C26 21.72 26 16.44 26 11 C25.67 11 25.34 11 25 11 Z M30 13 C28.7619986 16.57644848 29.25073929 19.33694766 30 23 C29.01 23.495 29.01 23.495 28 24 C28.99 24 29.98 24 31 24 C31 20.37 31 16.74 31 13 C30.67 13 30.34 13 30 13 Z M32 16 C32 17.65 32 19.3 32 21 C32.33 21 32.66 21 33 21 C33 19.35 33 17.7 33 16 C32.67 16 32.34 16 32 16 Z M16 21 C17 24 17 24 17 24 Z M44 25 C42.81774763 31.83079148 43.25535054 38.12631267 44 45 C44.33 45 44.66 45 45 45 C45 38.4 45 31.8 45 25 C44.67 25 44.34 25 44 25 Z M39 30 C40 33 40 33 40 33 Z M16 53 C17 56 17 56 17 56 Z " fill="#E3E3E3" transform="translate(53,0)"/>
<path d="M0 0 C0.33 0 0.66 0 1 0 C1.33 6.6 1.66 13.2 2 20 C2 13.4 2 6.8 2 0 C3.32 0.33 4.64 0.66 6 1 C7.34262065 0.70630173 8.67696283 0.3721042 10 0 C11.32 0 12.64 0 14 0 C14 3.63 14 7.26 14 11 C14.33 7.37 14.66 3.74 15 0 C18.96 0 22.92 0 27 0 C27.33 2.31 27.66 4.62 28 7 C28 4.69 28 2.38 28 0 C33.61 0 39.22 0 45 0 C45 21.12 45 42.24 45 64 C39.39 64 33.78 64 28 64 C28 60.37 28 56.74 28 53 C27.67 56.63 27.34 60.26 27 64 C23.04 64 19.08 64 15 64 C14.67 61.36 14.34 58.72 14 56 C14 58.64 14 61.28 14 64 C10.04 64 6.08 64 2 64 C2 59.71 2 55.42 2 51 C1.67 55.29 1.34 59.58 1 64 C0.67 64 0.34 64 0 64 C-0.99232191 42.5986992 -0.90815926 21.4024925 0 0 Z M9 5 C10 8 10 8 10 8 Z M32 5 C33 8 33 8 33 8 Z M23 6 C24 8 24 8 24 8 Z M18 7 C19 9 19 9 19 9 Z M9 10 C10 12 10 12 10 12 Z M18 10 C19 12 19 12 19 12 Z M14 16 C13.79375 17.27875 13.5875 18.5575 13.375 19.875 C13.25898438 20.59429688 13.14296875 21.31359375 13.0234375 22.0546875 C13.01570313 22.69664063 13.00796875 23.33859375 13 24 C13.66 24.66 14.32 25.32 15 26 C15 22.7 15 19.4 15 16 C14.67 16 14.34 16 14 16 Z M6 18 C6 20.97 6 23.94 6 27 C6.33 27 6.66 27 7 27 C7 24.03 7 21.06 7 18 C6.67 18 6.34 18 6 18 Z M21 18 C21 20.64 21 23.28 21 26 C21.33 26 21.66 26 22 26 C22 23.36 22 20.72 22 18 C21.67 18 21.34 18 21 18 Z M9 21 C10 24 10 24 10 24 Z M32 21 C33 24 33 24 33 24 Z M23 22 C24 24 24 24 24 24 Z M18 23 C19 25 19 25 19 25 Z M13 30 C13 35.61 13 41.22 13 47 C13.66 47 14.32 47 15 47 C15 41.39 15 35.78 15 30 C14.34 30 13.68 30 13 30 Z M21 31 C21 34.96 21 38.92 21 43 C21.33 43 21.66 43 22 43 C22 39.04 22 35.08 22 31 C21.67 31 21.34 31 21 31 Z M9 32 C10 34 10 34 10 34 Z M6 33 C6 36.63 6 40.26 6 44 C6.33 44 6.66 44 7 44 C7 40.37 7 36.74 7 33 C6.67 33 6.34 33 6 33 Z M9 37 C10 40 10 40 10 40 Z M32 37 C33 40 33 40 33 40 Z M23 38 C24 40 24 40 24 40 Z M18 39 C19 41 19 41 19 41 Z M9 42 C10 45 10 45 10 45 Z M18 42 C19 44 19 44 19 44 Z M9 53 C10 56 10 56 10 56 Z M32 53 C33 56 33 56 33 56 Z M23 54 C24 56 24 56 24 56 Z M18 55 C19 57 19 57 19 57 Z M9 58 C10 61 10 61 10 61 Z M18 58 C19 60 19 60 19 60 Z " fill="#DEDEDE" transform="translate(255,0)"/>
<path d="M0 0 C4.95 0 9.9 0 15 0 C14.67 1.98 14.34 3.96 14 6 C14.37907282 8.18703385 14.37907282 8.18703385 15 10 C15 14.33333333 15 18.66666667 15 23 C15.33 15.41 15.66 7.82 16 0 C16.33 0 16.66 0 17 0 C17.02505615 0.61520508 17.0501123 1.23041016 17.07592773 1.86425781 C17.19218487 4.65970156 17.31477642 7.45483298 17.4375 10.25 C17.47681641 11.21808594 17.51613281 12.18617187 17.55664062 13.18359375 C17.59853516 14.11816406 17.64042969 15.05273438 17.68359375 16.015625 C17.72025146 16.87446289 17.75690918 17.73330078 17.79467773 18.61816406 C17.98703514 20.84960143 18.38846244 22.84982524 19 25 C19.66 25 20.32 25 21 25 C20.7525 23.7315625 20.7525 23.7315625 20.5 22.4375 C19.98670712 18.90861144 19.92878654 15.56067311 20 12 C20.66 11.67 21.32 11.34 22 11 C22.33 13.97 22.66 16.94 23 20 C23.33 20 23.66 20 24 20 C24 21.65 24 23.3 24 25 C24.99 25 25.98 25 27 25 C27.33 24.01 27.66 23.02 28 22 C28.33 22 28.66 22 29 22 C29.33 14.74 29.66 7.48 30 0 C30.33 0 30.66 0 31 0 C31.01458252 0.65597168 31.02916504 1.31194336 31.04418945 1.98779297 C31.11851414 4.95080031 31.21522369 7.91266117 31.3125 10.875 C31.33505859 11.90753906 31.35761719 12.94007812 31.38085938 14.00390625 C31.4340332 15.48310547 31.4340332 15.48310547 31.48828125 16.9921875 C31.51446533 17.90339355 31.54064941 18.81459961 31.56762695 19.75341797 C31.71031006 20.49479004 31.85299316 21.23616211 32 22 C32.99 22.66 33.98 23.32 35 24 C34.505 22.02 34.505 22.02 34 20 C33.01 20.495 33.01 20.495 32 21 C32 18.03 32 15.06 32 12 C32.99 12 33.98 12 35 12 C34.505 11.01 34.505 11.01 34 10 C34.33 9.01 34.66 8.02 35 7 C34.505 5.515 34.505 5.515 34 4 C33.34 4.33 32.68 4.66 32 5 C32.375 3.0625 32.375 3.0625 33 1 C38.07718207 -1.53859104 44.32353788 0 50 0 C50 21.12 50 42.24 50 64 C44.06 64 38.12 64 32 64 C33 60 33 60 34 59 C35.00170317 55.9948905 35.04549908 55.13649725 34 52 C33.01 52.495 33.01 52.495 32 53 C32 50.03 32 47.06 32 44 C32.99 44 33.98 44 35 44 C34.67 43.34 34.34 42.68 34 42 C34.28112064 39.99199544 34.61067967 37.98985949 35 36 C34.01 36.33 33.02 36.66 32 37 C31.67 45.91 31.34 54.82 31 64 C30.67 64 30.34 64 30 64 C29.67 55.09 29.34 46.18 29 37 C27.35 36.67 25.7 36.34 24 36 C24 38.31 24 40.62 24 43 C22.515 42.505 22.515 42.505 21 42 C20.505 39.525 20.505 39.525 20 37 C18.515 36.505 18.515 36.505 17 36 C17 45.24 17 54.48 17 64 C16.67 64 16.34 64 16 64 C15.67 55.09 15.34 46.18 15 37 C15 37.66 15 38.32 15 39 C14.68197057 40.66965451 14.35015049 42.33678518 14 44 C14.33 44 14.66 44 15 44 C15 55 15 55 14.4375 57.5 C13.77895068 60.26652837 13.77895068 60.26652837 15 64 C10.05 64 5.1 64 0 64 C0 42.88 0 21.76 0 0 Z M34 15 C33.67 15.66 33.34 16.32 33 17 C33.99 16.67 34.98 16.34 36 16 C35.34 15.67 34.68 15.34 34 15 Z M34 47 C33.67 47.66 33.34 48.32 33 49 C33.99 48.67 34.98 48.34 36 48 C35.34 47.67 34.68 47.34 34 47 Z " fill="#DADADA" transform="translate(0,0)"/>
<path d="M0 0 C1.98 0 3.96 0 6 0 C6 19.47 6 38.94 6 59 C4.02 59 2.04 59 0 59 C0 39.53 0 20.06 0 0 Z " fill="#000000" transform="translate(290,5)"/>
<path d="M0 0 C4.95 0 9.9 0 15 0 C15 21.12 15 42.24 15 64 C13.68 63.67 12.36 63.34 11 63 C11 43.86 11 24.72 11 5 C7.37 5 3.74 5 0 5 C0 3.35 0 1.7 0 0 Z " fill="#FCFCFC" transform="translate(285,0)"/>
<path d="M0 0 C0.66 0 1.32 0 2 0 C2 1.65 2 3.3 2 5 C3.32 5 4.64 5 6 5 C6 24.47 6 43.94 6 64 C4.02 64 2.04 64 0 64 C0 59.71 0 55.42 0 51 C1.32 51 2.64 51 4 51 C3.51672241 49.92806396 3.51672241 49.92806396 3.02368164 48.83447266 C1.97326519 45.92597398 1.70587839 43.72522019 1.62109375 40.6484375 C1.56985352 39.12283203 1.56985352 39.12283203 1.51757812 37.56640625 C1.49115234 36.51324219 1.46472656 35.46007813 1.4375 34.375 C1.23095326 27.35241067 0.89598041 20.39946165 0.21166992 13.40625 C-0.04097529 10.53419554 -0.09993167 7.69473823 -0.0625 4.8125 C-0.05347656 3.89082031 -0.04445313 2.96914062 -0.03515625 2.01953125 C-0.02355469 1.35308594 -0.01195312 0.68664062 0 0 Z M4 21 C5 24 5 24 5 24 Z M4 37 C5 40 5 40 5 40 Z M4 53 C5 56 5 56 5 56 Z " fill="#000000" transform="translate(283,0)"/>
<path d="M0 0 C1.98 0 3.96 0 6 0 C6 15.51 6 31.02 6 47 C4.02 47 2.04 47 0 47 C0 31.49 0 15.98 0 0 Z M2 5 C3 7 3 7 3 7 Z M2 21 C3 23 3 23 3 23 Z M2 37 C3 39 3 39 3 39 Z " fill="#000000" transform="translate(201,17)"/>
<path d="M0 0 C1.32 0 2.64 0 4 0 C4 21.12 4 42.24 4 64 C2.68 64 1.36 64 0 64 C-0.05807043 60.89591193 -0.09361914 57.7919636 -0.125 54.6875 C-0.14175781 53.80642578 -0.15851563 52.92535156 -0.17578125 52.01757812 C-0.18222656 51.17001953 -0.18867188 50.32246094 -0.1953125 49.44921875 C-0.20578613 48.66893311 -0.21625977 47.88864746 -0.22705078 47.0847168 C0 45 0 45 2 42 C1.34 42 0.68 42 0 42 C0 28.14 0 14.28 0 0 Z " fill="#000000" transform="translate(250,0)"/>
<path d="M0 0 C0.33 1.32 0.66 2.64 1 4 C2.65 4 4.3 4 6 4 C6 17.2 6 30.4 6 44 C4.02 44 2.04 44 0 44 C0 29.48 0 14.96 0 0 Z M4 17 C5 20 5 20 5 20 Z M4 33 C5 36 5 36 5 36 Z " fill="#000000" transform="translate(208,20)"/>
<path d="M0 0 C1.32 0 2.64 0 4 0 C4 21.12 4 42.24 4 64 C2.68 64 1.36 64 0 64 C-0.05883728 60.52090629 -0.09387399 57.04194326 -0.125 53.5625 C-0.14175781 52.58861328 -0.15851563 51.61472656 -0.17578125 50.61132812 C-0.21267501 45.09571095 0.26786674 40.26179152 1.61279297 34.91967773 C2.13853627 32.31317108 1.77746069 30.31151232 1.125 27.75 C-0.72896878 18.62276907 -0.16931588 9.26809069 0 0 Z " fill="#000000" transform="translate(175,0)"/>
<path d="M0 0 C1.32 0.33 2.64 0.66 4 1 C4 21.79 4 42.58 4 64 C3.01 63.67 2.02 63.34 1 63 C-0.35144654 60.29710692 -0.11975165 58.19930194 -0.11352539 55.17333984 C-0.11341209 53.34166763 -0.11341209 53.34166763 -0.11329651 51.47299194 C-0.10818952 50.13564005 -0.10297352 48.79828857 -0.09765625 47.4609375 C-0.0957914 46.09616141 -0.09436781 44.73138466 -0.09336853 43.36660767 C-0.08954863 39.77284907 -0.07972283 36.17913083 -0.06866455 32.58538818 C-0.05843911 28.91891018 -0.05386848 25.25242565 -0.04882812 21.5859375 C-0.0381001 14.39060659 -0.02102999 7.19530895 0 0 Z M1 7 C1 8.65 1 10.3 1 12 C1.33 12 1.66 12 2 12 C2 10.35 2 8.7 2 7 C1.67 7 1.34 7 1 7 Z M1 23 C1 24.65 1 26.3 1 28 C1.33 28 1.66 28 2 28 C2 26.35 2 24.7 2 23 C1.67 23 1.34 23 1 23 Z M1 39 C1 40.65 1 42.3 1 44 C1.33 44 1.66 44 2 44 C2 42.35 2 40.7 2 39 C1.67 39 1.34 39 1 39 Z M1 55 C1 56.65 1 58.3 1 60 C1.33 60 1.66 60 2 60 C2 58.35 2 56.7 2 55 C1.67 55 1.34 55 1 55 Z " fill="#000000" transform="translate(100,0)"/>
<path d="M0 0 C1.32 0 2.64 0 4 0 C4 15.51 4 31.02 4 47 C2.68 47 1.36 47 0 47 C0 31.49 0 15.98 0 0 Z " fill="#000000" transform="translate(215,17)"/>
<path d="M0 0 C1.98 0 3.96 0 6 0 C6 9.57 6 19.14 6 29 C4.02 29.33 2.04 29.66 0 30 C0 20.1 0 10.2 0 0 Z " fill="#000000" transform="translate(236,17)"/>
<path d="M0 0 C5 1 5 1 6 2 C6.08748207 3.92667507 6.10697334 5.85651861 6.09765625 7.78515625 C6.09443359 8.95498047 6.09121094 10.12480469 6.08789062 11.33007812 C6.07951172 12.56177734 6.07113281 13.79347656 6.0625 15.0625 C6.05798828 16.29806641 6.05347656 17.53363281 6.04882812 18.80664062 C6.03699608 21.87114117 6.02051173 24.93554721 6 28 C4.02 28.66 2.04 29.32 0 30 C0 20.1 0 10.2 0 0 Z " fill="#000000" transform="translate(161,17)"/>
<path d="M0 0 C0 15.18 0 30.36 0 46 C-1.32 46 -2.64 46 -4 46 C-4 31.15 -4 16.3 -4 1 C-2 0 -2 0 0 0 Z M-2 5 C-1 7 -1 7 -1 7 Z M-2 8 C-1 10 -1 10 -1 10 Z M-2 21 C-1 23 -1 23 -1 23 Z M-2 24 C-1 26 -1 26 -1 26 Z M-2 37 C-1 39 -1 39 -1 39 Z M-2 40 C-1 42 -1 42 -1 42 Z " fill="#000000" transform="translate(200,18)"/>
<path d="M0 0 C0.66 0 1.32 0 2 0 C2.03758423 1.24088379 2.03758423 1.24088379 2.07592773 2.50683594 C2.19196349 6.25471192 2.314656 10.00234125 2.4375 13.75 C2.47681641 15.05195312 2.51613281 16.35390625 2.55664062 17.6953125 C2.59853516 18.94570313 2.64042969 20.19609375 2.68359375 21.484375 C2.72025146 22.63647461 2.75690918 23.78857422 2.79467773 24.97558594 C2.96452174 27.47740224 3.27968475 29.61091168 4 32 C4.66 32 5.32 32 6 32 C6 36.95 6 41.9 6 47 C4.02 47 2.04 47 0 47 C0 31.49 0 15.98 0 0 Z M4 36 C5 38 5 38 5 38 Z M4 41 C5 43 5 43 5 43 Z " fill="#000000" transform="translate(222,17)"/>
<path d="M0 0 C1.16661952 4.16404764 1.12576063 8.1898068 1.09765625 12.484375 C1.0962413 13.29996887 1.09482635 14.11556274 1.09336853 14.95587158 C1.08778303 17.55395212 1.07523321 20.15194563 1.0625 22.75 C1.05748312 24.51432167 1.05292054 26.27864469 1.04882812 28.04296875 C1.03781835 32.36201256 1.02056369 36.68099154 1 41 C-0.32 41 -1.64 41 -3 41 C-3.07443657 36.12535909 -3.12873667 31.25105272 -3.16479492 26.37597656 C-3.17983465 24.71934237 -3.20027177 23.06274769 -3.22631836 21.40625 C-3.26291515 19.0181297 -3.27977439 16.63053812 -3.29296875 14.2421875 C-3.30845261 13.50757294 -3.32393646 12.77295837 -3.33988953 12.01608276 C-3.34142964 7.25646232 -2.43282457 4.07996185 0 0 Z " fill="#000000" transform="translate(192,23)"/>
<path d="M0 0 C0 9.24 0 18.48 0 28 C-5 24 -5 24 -6 22 C-6.17759374 19.21381629 -6.2775623 16.47552812 -6.3125 13.6875 C-6.34150391 12.92759766 -6.37050781 12.16769531 -6.40039062 11.38476562 C-6.44563176 7.37918543 -6.2783086 5.44701525 -4.10546875 1.95703125 C-2 0 -2 0 0 0 Z M-2 3 C-1 5 -1 5 -1 5 Z M-2 8 C-1 10 -1 10 -1 10 Z M-2 19 C-1 21 -1 21 -1 21 Z M-2 24 C-1 26 -1 26 -1 26 Z " fill="#000000" transform="translate(153,18)"/>
<path d="M0 0 C0 10.23 0 20.46 0 31 C-1.32 30.67 -2.64 30.34 -4 30 C-4 20.43 -4 10.86 -4 1 C-2 0 -2 0 0 0 Z " fill="#000000" transform="translate(158,16)"/>
<path d="M0 0 C1.98 0 3.96 0 6 0 C6 7.26 6 14.52 6 22 C0 16 0 16 -0.09765625 12.40234375 C-0.0909822 10.91403133 -0.07902183 9.42573568 -0.0625 7.9375 C-0.05798828 7.17888672 -0.05347656 6.42027344 -0.04882812 5.63867188 C-0.0370068 3.75908129 -0.01907078 1.87953101 0 0 Z M4 5 C5 8 5 8 5 8 Z " fill="#000000" transform="translate(133,0)"/>
<path d="M0 0 C0 6.93 0 13.86 0 21 C-1.98 21 -3.96 21 -6 21 C-6.13559675 18.43571485 -6.23433188 15.87864784 -6.3125 13.3125 C-6.35439453 12.59126953 -6.39628906 11.87003906 -6.43945312 11.12695312 C-6.53719699 6.84577193 -6.36500723 5.4485701 -3.54296875 1.98046875 C-1 0 -1 0 0 0 Z M-2 10 C-1 13 -1 13 -1 13 Z " fill="#000000" transform="translate(139,43)"/>
<path d="M0 0 C0 4.95 0 9.9 0 15 C-1.32 15.33 -2.64 15.66 -4 16 C-4.99 15.34 -5.98 14.68 -7 14 C-7.29296875 10.9609375 -7.29296875 10.9609375 -7.1875 7.375 C-7.16042969 6.18648437 -7.13335937 4.99796875 -7.10546875 3.7734375 C-7.07066406 2.85820313 -7.03585937 1.94296875 -7 1 C-3.375 -1.125 -3.375 -1.125 0 0 Z M-5 1 C-4 3 -4 3 -4 3 Z M-5 6 C-4 9 -4 9 -4 9 Z M-5 11 C-4 14 -4 14 -4 14 Z " fill="#000000" transform="translate(269,31)"/>
<path d="M0 0 C1.32 0.33 2.64 0.66 4 1 C4 10.9 4 20.8 4 31 C2.68 30.67 1.36 30.34 0 30 C0 20.1 0 10.2 0 0 Z M2 10 C3 13 3 13 3 13 Z M2 26 C3 29 3 29 3 29 Z " fill="#000000" transform="translate(121,16)"/>
<path d="M0 0 C2.97 0.495 2.97 0.495 6 1 C6 5.29 6 9.58 6 14 C4.02 14.99 2.04 15.98 0 17 C0 11.39 0 5.78 0 0 Z M3 9 C4 11 4 11 4 11 Z M3 12 C4 14 4 14 4 14 Z " fill="#000000" transform="translate(270,30)"/>
<path d="M0 0 C1.32 0 2.64 0 4 0 C4.05797565 3.93743833 4.09358789 7.87476719 4.125 11.8125 C4.14175781 12.93205078 4.15851563 14.05160156 4.17578125 15.20507812 C4.18222656 16.27822266 4.18867188 17.35136719 4.1953125 18.45703125 C4.20578613 19.44678955 4.21625977 20.43654785 4.22705078 21.45629883 C4 24 4 24 2 27 C1.34 26.67 0.68 26.34 0 26 C0 17.42 0 8.84 0 0 Z " fill="#000000" transform="translate(243,17)"/>
<path d="M0 0 C0.66 1.32 1.32 2.64 2 4 C2.99 5.485 2.99 5.485 4 7 C4.22705078 9.0847168 4.22705078 9.0847168 4.1953125 11.44921875 C4.18886719 12.29677734 4.18242187 13.14433594 4.17578125 14.01757812 C4.15902344 14.89865234 4.14226562 15.77972656 4.125 16.6875 C4.11597656 17.58017578 4.10695312 18.47285156 4.09765625 19.39257812 C4.07409748 21.59532314 4.04120329 23.79752588 4 26 C2.68 26 1.36 26 0 26 C0 17.42 0 8.84 0 0 Z " fill="#000000" transform="translate(140,38)"/>
<path d="M0 0 C0.99 0 1.98 0 3 0 C3 8.25 3 16.5 3 25 C1.68 25 0.36 25 -1 25 C-1.02886984 21.02084841 -1.04675406 17.04172347 -1.0625 13.0625 C-1.07087891 11.92619141 -1.07925781 10.78988281 -1.08789062 9.61914062 C-1.09111328 8.53955078 -1.09433594 7.45996094 -1.09765625 6.34765625 C-1.10289307 5.34742432 -1.10812988 4.34719238 -1.11352539 3.31665039 C-1 1 -1 1 0 0 Z M1 14 C2 17 2 17 2 17 Z " fill="#000000" transform="translate(68,39)"/>
<path d="M0 0 C1.98 0.66 3.96 1.32 6 2 C6 6.29 6 10.58 6 15 C4.02 15 2.04 15 0 15 C0 10.05 0 5.1 0 0 Z M4 4 C5 6 5 6 5 6 Z M4 9 C5 11 5 11 5 11 Z " fill="#000000" transform="translate(147,49)"/>
<path d="M0 0 C1.32 0 2.64 0 4 0 C4.08132642 3.04221065 4.14065374 6.0822238 4.1875 9.125 C4.22520508 10.40890625 4.22520508 10.40890625 4.26367188 11.71875 C4.32398809 16.94615526 3.85261993 20.43281324 1 25 C0.67 25 0.34 25 0 25 C0 16.75 0 8.5 0 0 Z " fill="#000000" transform="translate(140,0)"/>
<path d="M0 0 C1.98 0.99 1.98 0.99 4 2 C3.67 2.66 3.34 3.32 3 4 C3.33 4.33 3.66 4.66 4 5 C4.09975032 7.51136104 4.13882183 9.98903415 4.125 12.5 C4.12886719 13.20253906 4.13273437 13.90507813 4.13671875 14.62890625 C4.12661378 19.87338622 4.12661378 19.87338622 3 21 C3.40929986 23.05396726 3.40929986 23.05396726 4 25 C2.68 25 1.36 25 0 25 C0 16.75 0 8.5 0 0 Z " fill="#000000" transform="translate(79,39)"/>
<path d="M0 0 C1.98 0 3.96 0 6 0 C6.05386629 2.12472576 6.09273071 4.24983652 6.125 6.375 C6.14820313 7.55835938 6.17140625 8.74171875 6.1953125 9.9609375 C6 13 6 13 4 15 C2.68 14.34 1.36 13.68 0 13 C0 8.71 0 4.42 0 0 Z M4 5 C5 8 5 8 5 8 Z " fill="#000000" transform="translate(208,0)"/>
<path d="M0 0 C2.31 0.33 4.62 0.66 7 1 C7 4.96 7 8.92 7 13 C4.69 13 2.38 13 0 13 C0 8.71 0 4.42 0 0 Z M2 2 C3 5 3 5 3 5 Z M2 7 C3 10 3 10 3 10 Z " fill="#000000" transform="translate(262,51)"/>
<path d="M0 0 C1.98 0 3.96 0 6 0 C6 4.29 6 8.58 6 13 C4.02 13.66 2.04 14.32 0 15 C0 10.05 0 5.1 0 0 Z M4 5 C5 7 5 7 5 7 Z M4 10 C5 12 5 12 5 12 Z " fill="#000000" transform="translate(147,0)"/>
<path d="M0 0 C0 4.62 0 9.24 0 14 C-1.98 14 -3.96 14 -6 14 C-6 9.71 -6 5.42 -6 1 C-2 0 -2 0 0 0 Z M-3 5 C-2 7 -2 7 -2 7 Z M-3 8 C-2 10 -2 10 -2 10 Z " fill="#000000" transform="translate(276,50)"/>
<path d="M0 0 C0.99 0 1.98 0 3 0 C3 9.57 3 19.14 3 29 C1 28 1 28 0 27 C-0.08758003 25.00035018 -0.10696576 22.9976389 -0.09765625 20.99609375 C-0.09443359 19.78115234 -0.09121094 18.56621094 -0.08789062 17.31445312 C-0.07951172 16.03505859 -0.07113281 14.75566406 -0.0625 13.4375 C-0.05798828 12.15423828 -0.05347656 10.87097656 -0.04882812 9.54882812 C-0.03699545 6.36583978 -0.02051068 3.18294238 0 0 Z " fill="#000000" transform="translate(230,17)"/>
<path d="M0 0 C2.31 0 4.62 0 7 0 C7 3.96 7 7.92 7 12 C4.69 12.33 2.38 12.66 0 13 C0 8.71 0 4.42 0 0 Z M2 5 C3 8 3 8 3 8 Z " fill="#000000" transform="translate(262,0)"/>
<path d="M0 0 C0 4.62 0 9.24 0 14 C-1.98 14 -3.96 14 -6 14 C-6 9.71 -6 5.42 -6 1 C-1 0 -1 0 0 0 Z " fill="#000000" transform="translate(167,50)"/>
<path d="M0 0 C1.98 0 3.96 0 6 0 C6 4.29 6 8.58 6 13 C4.02 13 2.04 13 0 13 C0 8.71 0 4.42 0 0 Z " fill="#000000" transform="translate(236,0)"/>
<path d="M0 0 C0.99 0.495 0.99 0.495 2 1 C2 1.66 2 2.32 2 3 C2.66 3 3.32 3 4 3 C4.11608726 6.27053517 4.18720711 9.5405418 4.25 12.8125 C4.28351563 13.74126953 4.31703125 14.67003906 4.3515625 15.62695312 C4.36445313 16.51962891 4.37734375 17.41230469 4.390625 18.33203125 C4.4220459 19.56530151 4.4220459 19.56530151 4.45410156 20.82348633 C4 23 4 23 0 26 C0 17.42 0 8.84 0 0 Z " fill="#000000" transform="translate(128,19)"/>
<path d="M0 0 C0 4.29 0 8.58 0 13 C-1.98 13 -3.96 13 -6 13 C-6 9.04 -6 5.08 -6 1 C-4 0 -4 0 0 0 Z " fill="#000000" transform="translate(242,51)"/>
<path d="M0 0 C1.98 0 3.96 0 6 0 C6 4.29 6 8.58 6 13 C3.03 12.505 3.03 12.505 0 12 C0 8.04 0 4.08 0 0 Z " fill="#000000" transform="translate(161,0)"/>
<path d="M0 0 C2.58548628 2.58548628 2.97641847 4.29538385 3.09765625 7.91796875 C3.08605469 8.99691406 3.07445312 10.07585938 3.0625 11.1875 C3.05347656 12.27417969 3.04445313 13.36085938 3.03515625 14.48046875 C3.02355469 15.31191406 3.01195312 16.14335938 3 17 C1.35 17 -0.3 17 -2 17 C-2 12.05 -2 7.1 -2 2 C-1.34 2 -0.68 2 0 2 C0 1.34 0 0.68 0 0 Z M-1 7 C0 9 0 9 0 9 Z " fill="#000000" transform="translate(279,47)"/>
<path d="M0 0 C1.98 0 3.96 0 6 0 C6 3.96 6 7.92 6 12 C4.02 12 2.04 12 0 12 C0 8.04 0 4.08 0 0 Z M3 7 C4 9 4 9 4 9 Z " fill="#000000" transform="translate(270,0)"/>
<path d="M0 0 C1.65 0 3.3 0 5 0 C5 4.95 5 9.9 5 15 C2.525 14.01 2.525 14.01 0 13 C0 8.71 0 4.42 0 0 Z M1 6 C2 8 2 8 2 8 Z " fill="#000000" transform="translate(277,0)"/>
<path d="M0 0 C1.65 0 3.3 0 5 0 C5.98248524 4.0527516 6.08159574 7.83861737 6 12 C4.02 12 2.04 12 0 12 C0 8.04 0 4.08 0 0 Z M2 6 C3 8 3 8 3 8 Z " fill="#000000" transform="translate(201,0)"/>
<path d="M0 0 C0.33 0 0.66 0 1 0 C1 21.12 1 42.24 1 64 C0.67 64 0.34 64 0 64 C0 42.88 0 21.76 0 0 Z " fill="#000000" transform="translate(180,0)"/>
<path d="M0 0 C1.32 0 2.64 0 4 0 C4.08074203 2.62561109 4.1403623 5.24875676 4.1875 7.875 C4.22520508 8.99455078 4.22520508 8.99455078 4.26367188 10.13671875 C4.29296875 12.3046875 4.29296875 12.3046875 4 16 C3.01 16.66 2.02 17.32 1 18 C0.04380267 14.00204108 -0.1039592 10.29196078 -0.0625 6.1875 C-0.05347656 5.02605469 -0.04445312 3.86460937 -0.03515625 2.66796875 C-0.02355469 1.78753906 -0.01195312 0.90710937 0 0 Z " fill="#000000" transform="translate(189,0)"/>
<path d="M0 0 C0 3.3 0 6.6 0 10 C-2.31 10 -4.62 10 -7 10 C-7 7.36 -7 4.72 -7 2 C-2.25 0 -2.25 0 0 0 Z M-5 5 C-4 8 -4 8 -4 8 Z " fill="#000000" transform="translate(269,16)"/>
<path d="M0 0 C0.33 0 0.66 0 1 0 C1.12375 0.969375 1.2475 1.93875 1.375 2.9375 C1.58125 3.948125 1.7875 4.95875 2 6 C2.66 6.33 3.32 6.66 4 7 C4 11.29 4 15.58 4 20 C2.68 20 1.36 20 0 20 C0 13.4 0 6.8 0 0 Z " fill="#000000" transform="translate(182,44)"/>
<path d="M0 0 C1.98 0.99 1.98 0.99 4 2 C4 6.62 4 11.24 4 16 C2.68 16 1.36 16 0 16 C0 10.72 0 5.44 0 0 Z " fill="#000000" transform="translate(257,48)"/>
<path d="M0 0 C1.98 0.66 3.96 1.32 6 2 C6 4.64 6 7.28 6 10 C4.02 10 2.04 10 0 10 C0 6.7 0 3.4 0 0 Z M3 7 C4 9 4 9 4 9 Z " fill="#000000" transform="translate(270,16)"/>
<path d="M0 0 C0.99 0 1.98 0 3 0 C3 5.28 3 10.56 3 16 C1.68 16 0.36 16 -1 16 C-1.02685095 13.52076199 -1.04676547 11.0418116 -1.0625 8.5625 C-1.07506836 7.50192383 -1.07506836 7.50192383 -1.08789062 6.41992188 C-1.09653588 4.61306441 -1.05220011 2.80612397 -1 1 C-0.67 0.67 -0.34 0.34 0 0 Z M1 10 C2 13 2 13 2 13 Z " fill="#000000" transform="translate(68,11)"/>
<path d="M0 0 C0.33 0 0.66 0 1 0 C1 5.61 1 11.22 1 17 C-0.32 16.67 -1.64 16.34 -3 16 C-3.08133791 14.08404032 -3.13934367 12.16708068 -3.1875 10.25 C-3.22230469 9.18265625 -3.25710937 8.1153125 -3.29296875 7.015625 C-2.97032505 3.69454586 -2.28826707 2.37472553 0 0 Z " fill="#000000" transform="translate(171,47)"/>
<path d="M0 0 C0.99 0 1.98 0 3 0 C3 5.28 3 10.56 3 16 C1.68 15.34 0.36 14.68 -1 14 C-1.02685938 11.85423363 -1.04633088 9.70837355 -1.0625 7.5625 C-1.07410156 6.36753906 -1.08570313 5.17257812 -1.09765625 3.94140625 C-1 1 -1 1 0 0 Z " fill="#000000" transform="translate(169,0)"/>
<path d="M0 0 C1.32 0.33 2.64 0.66 4 1 C4 4.96 4 8.92 4 13 C2.68 13.33 1.36 13.66 0 14 C0 9.38 0 4.76 0 0 Z " fill="#000000" transform="translate(257,0)"/>
<path d="M0 0 C1.32 0 2.64 0 4 0 C4 4.29 4 8.58 4 13 C2.68 13 1.36 13 0 13 C0 8.71 0 4.42 0 0 Z " fill="#000000" transform="translate(215,0)"/>
<path d="M0 0 C0 4.95 0 9.9 0 15 C-1.32 14.67 -2.64 14.34 -4 14 C-4.08082094 12.04233719 -4.13910778 10.08373272 -4.1875 8.125 C-4.22230469 7.03445312 -4.25710937 5.94390625 -4.29296875 4.8203125 C-4.19628906 3.88960937 -4.09960938 2.95890625 -4 2 C-1 0 -1 0 0 0 Z " fill="#000000" transform="translate(247,49)"/>
<path d="M0 0 C1.32 0 2.64 0 4 0 C4 4.29 4 8.58 4 13 C2.68 13 1.36 13 0 13 C0 8.71 0 4.42 0 0 Z " fill="#000000" transform="translate(229,51)"/>
<path d="M0 0 C1.32 0 2.64 0 4 0 C4 4.29 4 8.58 4 13 C2.68 12.67 1.36 12.34 0 12 C0 8.04 0 4.08 0 0 Z " fill="#000000" transform="translate(182,0)"/>
<path d="M0 0 C1.98 0.99 1.98 0.99 4 2 C4 5.96 4 9.92 4 14 C2.68 14.33 1.36 14.66 0 15 C0 10.05 0 5.1 0 0 Z " fill="#000000" transform="translate(79,11)"/>
<path d="M0 0 C0 4.95 0 9.9 0 15 C-1.32 15 -2.64 15 -4 15 C-4.08078641 12.87561661 -4.13909141 10.7503677 -4.1875 8.625 C-4.22230469 7.44164062 -4.25710937 6.25828125 -4.29296875 5.0390625 C-4.19628906 4.03617188 -4.09960938 3.03328125 -4 2 C-1 0 -1 0 0 0 Z " fill="#000000" transform="translate(132,49)"/>
<path d="M0 0 C1.32 0.33 2.64 0.66 4 1 C4 4.96 4 8.92 4 13 C2.68 13 1.36 13 0 13 C0 8.71 0 4.42 0 0 Z " fill="#000000" transform="translate(154,51)"/>
<path d="M0 0 C1.32 0 2.64 0 4 0 C4 4.29 4 8.58 4 13 C2.68 13 1.36 13 0 13 C0 8.71 0 4.42 0 0 Z M2 7 C3 9 3 9 3 9 Z M2 10 C3 12 3 12 3 12 Z " fill="#000000" transform="translate(196,0)"/>
<path d="M0 0 C1.32 0 2.64 0 4 0 C4 3.96 4 7.92 4 12 C2.68 12 1.36 12 0 12 C0 8.04 0 4.08 0 0 Z " fill="#000000" transform="translate(154,0)"/>
<path d="M0 0 C2.87460163 4.31190245 3.53867848 9.01278296 2.61328125 14.14453125 C2.14254293 15.78376895 1.58009855 17.39619812 1 19 C-1 17 -1 17 -1.23046875 13.33984375 C-1.22647733 11.87233136 -1.21172158 10.40481791 -1.1875 8.9375 C-1.18685547 8.19177734 -1.18621094 7.44605469 -1.18554688 6.67773438 C-1.14028159 1.14028159 -1.14028159 1.14028159 0 0 Z " fill="#000000" transform="translate(169,22)"/>
<path d="M0 0 C1.33333333 0 2.66666667 0 4 0 C4 5.28 4 10.56 4 16 C3.34 15.67 2.68 15.34 2 15 C2 14.34 2 13.68 2 13 C1.34 13 0.68 13 0 13 C0 8.71 0 4.42 0 0 Z M1 10 C1.33 10.66 1.66 11.32 2 12 C2.33 11.34 2.66 10.68 3 10 C2.34 10 1.68 10 1 10 Z " fill="#000000" transform="translate(107,0)"/>
<path d="M0 0 C0.99 0 1.98 0 3 0 C3 4.95 3 9.9 3 15 C2.67 14.34 2.34 13.68 2 13 C1.01 13 0.02 13 -1 13 C-1.02686553 11.02090602 -1.04633375 9.04171029 -1.0625 7.0625 C-1.07410156 5.96035156 -1.08570312 4.85820312 -1.09765625 3.72265625 C-1 1 -1 1 0 0 Z " fill="#000000" transform="translate(129,0)"/>
<path d="M0 0 C0.99 0 1.98 0 3 0 C3 4.29 3 8.58 3 13 C1.68 12.67 0.36 12.34 -1 12 C-1.02687279 10.18757948 -1.04633715 8.37504767 -1.0625 6.5625 C-1.07410156 5.55316406 -1.08570313 4.54382813 -1.09765625 3.50390625 C-1 1 -1 1 0 0 Z " fill="#000000" transform="translate(244,0)"/>
<path d="M0 0 C0 4.29 0 8.58 0 13 C-1.32 13 -2.64 13 -4 13 C-4 9.04 -4 5.08 -4 1 C-2 0 -2 0 0 0 Z M-2 7 C-1 10 -1 10 -1 10 Z " fill="#000000" transform="translate(125,51)"/>
<path d="M0 0 C1.32 0 2.64 0 4 0 C4 4.29 4 8.58 4 13 C3.01 13 2.02 13 1 13 C0.67 8.71 0.34 4.42 0 0 Z " fill="#000000" transform="translate(229,0)"/>
<path d="M0 0 C1.32 0 2.64 0 4 0 C4 3.96 4 7.92 4 12 C2.68 11.67 1.36 11.34 0 11 C0 7.37 0 3.74 0 0 Z " fill="#000000" transform="translate(121,0)"/>
<path d="M0 0 C1.98 0 3.96 0 6 0 C6 0.66 6 1.32 6 2 C4.68 2 3.36 2 2 2 C2 5.63 2 9.26 2 13 C1.34 13 0.68 13 0 13 C0 8.71 0 4.42 0 0 Z " fill="#000000" transform="translate(222,0)"/>
<path d="M0 0 C0 2.97 0 5.94 0 9 C-1.32 9 -2.64 9 -4 9 C-4.1875 5.625 -4.1875 5.625 -4 2 C-1 0 -1 0 0 0 Z " fill="#000000" transform="translate(261,18)"/>
<path d="M0 0 C0.33 0 0.66 0 1 0 C1 4.95 1 9.9 1 15 C-1.26166232 11.60750652 -1.24515545 10.34798499 -1.1875 6.375 C-1.18105469 5.39273438 -1.17460937 4.41046875 -1.16796875 3.3984375 C-1 1 -1 1 0 0 Z " fill="#000000" transform="translate(21,43)"/>
<path d="M0 0 C1 3 1 3 0 6 C-0.99 6.33 -1.98 6.66 -3 7 C-2.25 2.25 -2.25 2.25 0 0 Z " fill="#000000" transform="translate(96,27)"/>
<path d="M0 0 C0.99 0.495 0.99 0.495 2 1 C2 3.97 2 6.94 2 10 C1.34 9.67 0.68 9.34 0 9 C0 6.03 0 3.06 0 0 Z " fill="#000000" transform="translate(27,43)"/>
<path d="M0 0 C0.99 0.495 0.99 0.495 2 1 C2 3.97 2 6.94 2 10 C1.34 9.67 0.68 9.34 0 9 C0 6.03 0 3.06 0 0 Z " fill="#000000" transform="translate(27,11)"/>
<path d="M0 0 C0.33 0 0.66 0 1 0 C1 3.3 1 6.6 1 10 C-1.29404844 6.55892734 -1.26293056 5.03160191 -1 1 C-0.67 0.67 -0.34 0.34 0 0 Z " fill="#000000" transform="translate(21,0)"/>
<path d="M0 0 C0.66 0 1.32 0 2 0 C2 1.65 2 3.3 2 5 C1.34 4.67 0.68 4.34 0 4 C0 2.68 0 1.36 0 0 Z " fill="#000000" transform="translate(27,0)"/>
<path d="M0 0 C0.33 0 0.66 0 1 0 C1 1.65 1 3.3 1 5 C0.34 4.67 -0.32 4.34 -1 4 C-0.67 2.68 -0.34 1.36 0 0 Z " fill="#000000" transform="translate(21,59)"/>
<path d="M0 0 C0.33 0 0.66 0 1 0 C1 1.65 1 3.3 1 5 C0.34 4.67 -0.32 4.34 -1 4 C-0.67 2.68 -0.34 1.36 0 0 Z " fill="#000000" transform="translate(28,54)"/>
<path d="M0 0 C0.33 0 0.66 0 1 0 C1 1.65 1 3.3 1 5 C0.34 4.67 -0.32 4.34 -1 4 C-0.67 2.68 -0.34 1.36 0 0 Z " fill="#000000" transform="translate(28,38)"/>
<path d="M0 0 C0.33 0 0.66 0 1 0 C1 1.65 1 3.3 1 5 C0.34 4.67 -0.32 4.34 -1 4 C-0.67 2.68 -0.34 1.36 0 0 Z " fill="#000000" transform="translate(28,6)"/>
<path d="M0 0 C0.99 0.495 0.99 0.495 2 1 C2 2.32 2 3.64 2 5 C1.34 4.67 0.68 4.34 0 4 C0 2.68 0 1.36 0 0 Z " fill="#000000" transform="translate(27,59)"/>
<path d="M0 0 C0.33 0 0.66 0 1 0 C1 2.31 1 4.62 1 7 C0.67 7 0.34 7 0 7 C0 4.69 0 2.38 0 0 Z " fill="#000000" transform="translate(18,53)"/>
<path d="M0 0 C0.33 0 0.66 0 1 0 C1 2.31 1 4.62 1 7 C0.67 7 0.34 7 0 7 C0 4.69 0 2.38 0 0 Z " fill="#000000" transform="translate(51,52)"/>
<path d="M0 0 C0.33 0 0.66 0 1 0 C1 2.31 1 4.62 1 7 C0.67 7 0.34 7 0 7 C0 4.69 0 2.38 0 0 Z " fill="#000000" transform="translate(23,52)"/>
<path d="M0 0 C0.33 0 0.66 0 1 0 C1 2.31 1 4.62 1 7 C0.67 7 0.34 7 0 7 C0 4.69 0 2.38 0 0 Z " fill="#000000" transform="translate(18,45)"/>
<path d="M0 0 C0.33 0 0.66 0 1 0 C1 2.31 1 4.62 1 7 C0.67 7 0.34 7 0 7 C0 4.69 0 2.38 0 0 Z " fill="#000000" transform="translate(51,44)"/>
<path d="M0 0 C0.33 0 0.66 0 1 0 C1 2.31 1 4.62 1 7 C0.67 7 0.34 7 0 7 C0 4.69 0 2.38 0 0 Z " fill="#000000" transform="translate(23,44)"/>
<path d="M0 0 C0.33 0 0.66 0 1 0 C1 2.31 1 4.62 1 7 C0.67 7 0.34 7 0 7 C0 4.69 0 2.38 0 0 Z " fill="#000000" transform="translate(18,37)"/>
<path d="M0 0 C0.33 0 0.66 0 1 0 C1 2.31 1 4.62 1 7 C0.67 7 0.34 7 0 7 C0 4.69 0 2.38 0 0 Z " fill="#000000" transform="translate(51,36)"/>
<path d="M0 0 C0.33 0 0.66 0 1 0 C1 2.31 1 4.62 1 7 C0.67 7 0.34 7 0 7 C0 4.69 0 2.38 0 0 Z " fill="#000000" transform="translate(51,28)"/>
<path d="M0 0 C0.33 0 0.66 0 1 0 C1 2.31 1 4.62 1 7 C0.67 7 0.34 7 0 7 C0 4.69 0 2.38 0 0 Z " fill="#000000" transform="translate(51,20)"/>
<path d="M0 0 C0.33 0 0.66 0 1 0 C1 2.31 1 4.62 1 7 C0.67 7 0.34 7 0 7 C0 4.69 0 2.38 0 0 Z " fill="#000000" transform="translate(18,13)"/>
<path d="M0 0 C0.33 0 0.66 0 1 0 C1 2.31 1 4.62 1 7 C0.67 7 0.34 7 0 7 C0 4.69 0 2.38 0 0 Z " fill="#000000" transform="translate(51,12)"/>
<path d="M0 0 C0.33 0 0.66 0 1 0 C1 2.31 1 4.62 1 7 C0.67 7 0.34 7 0 7 C0 4.69 0 2.38 0 0 Z " fill="#000000" transform="translate(23,12)"/>
<path d="M0 0 C0.33 0 0.66 0 1 0 C1 2.31 1 4.62 1 7 C0.67 7 0.34 7 0 7 C0 4.69 0 2.38 0 0 Z " fill="#000000" transform="translate(18,5)"/>
<path d="M0 0 C0.33 0 0.66 0 1 0 C1 2.31 1 4.62 1 7 C0.67 7 0.34 7 0 7 C0 4.69 0 2.38 0 0 Z " fill="#000000" transform="translate(51,4)"/>
<path d="M0 0 C0.33 0 0.66 0 1 0 C1 2.31 1 4.62 1 7 C0.67 7 0.34 7 0 7 C0 4.69 0 2.38 0 0 Z " fill="#000000" transform="translate(23,4)"/>
<path d="M0 0 C1 4 1 4 1 4 Z " fill="#000000" transform="translate(51,60)"/>
<path d="M0 0 C1 4 1 4 1 4 Z " fill="#000000" transform="translate(23,60)"/>
<path d="M0 0 C0.66 0.66 1.32 1.32 2 2 C1.01 2.495 1.01 2.495 0 3 C0 2.01 0 1.02 0 0 Z " fill="#000000" transform="translate(32,54)"/>
<path d="M0 0 C0.66 0.66 1.32 1.32 2 2 C1.01 2.495 1.01 2.495 0 3 C0 2.01 0 1.02 0 0 Z " fill="#000000" transform="translate(32,38)"/>
<path d="M0 0 C0.66 0.66 1.32 1.32 2 2 C1.01 2.495 1.01 2.495 0 3 C0 2.01 0 1.02 0 0 Z " fill="#000000" transform="translate(32,6)"/>
<path d="M0 0 C1 4 1 4 1 4 Z " fill="#000000" transform="translate(18,0)"/>
<path d="" fill="#000000" transform="translate(0,0)"/>
<path d="" fill="#000000" transform="translate(0,0)"/>
<path d="" fill="#000000" transform="translate(0,0)"/>
<path d="" fill="#000000" transform="translate(0,0)"/>
<path d="" fill="#000000" transform="translate(0,0)"/>
<path d="" fill="#000000" transform="translate(0,0)"/>
<path d="" fill="#000000" transform="translate(0,0)"/>
<path d="" fill="#000000" transform="translate(0,0)"/>
<path d="" fill="#000000" transform="translate(0,0)"/>
<path d="" fill="#000000" transform="translate(0,0)"/>
<path d="" fill="#000000" transform="translate(0,0)"/>
<path d="" fill="#000000" transform="translate(0,0)"/>
<path d="" fill="#000000" transform="translate(0,0)"/>
<path d="" fill="#000000" transform="translate(0,0)"/>
<path d="" fill="#000000" transform="translate(0,0)"/>
<path d="" fill="#000000" transform="translate(0,0)"/>
<path d="" fill="#000000" transform="translate(0,0)"/>
<path d="" fill="#000000" transform="translate(0,0)"/>
<path d="" fill="#000000" transform="translate(0,0)"/>
<path d="" fill="#000000" transform="translate(0,0)"/>
<path d="" fill="#000000" transform="translate(0,0)"/>
<path d="" fill="#000000" transform="translate(0,0)"/>
<path d="" fill="#000000" transform="translate(0,0)"/>
<path d="" fill="#000000" transform="translate(0,0)"/>
<path d="" fill="#000000" transform="translate(0,0)"/>
<path d="" fill="#000000" transform="translate(0,0)"/>
<path d="" fill="#000000" transform="translate(0,0)"/>
<path d="" fill="#000000" transform="translate(0,0)"/>
<path d="" fill="#000000" transform="translate(0,0)"/>
<path d="" fill="#000000" transform="translate(0,0)"/>
<path d="" fill="#000000" transform="translate(0,0)"/>
<path d="" fill="#000000" transform="translate(0,0)"/>
<path d="" fill="#000000" transform="translate(0,0)"/>
<path d="" fill="#000000" transform="translate(0,0)"/>
</svg>
