<?xml version="1.0" encoding="UTF-8"?>
<svg version="1.1" xmlns="http://www.w3.org/2000/svg" width="300" height="300">
<path d="M0 0 C11.44021936 9.308265 18.62157022 20.65909912 20.8828125 35.3984375 C22.19576859 49.20711361 19.54739719 63.43130468 11.03515625 74.72265625 C9.82924512 76.13862932 8.59992624 77.53501217 7.34765625 78.91015625 C6.74050781 79.60882813 6.13335937 80.3075 5.5078125 81.02734375 C-4.39948612 91.76531566 -18.62324151 96.65273043 -33.02734375 97.47265625 C-44.40618995 96.97267664 -56.94089591 93.33353009 -65.65234375 85.91015625 C-66.89371094 84.93949219 -66.89371094 84.93949219 -68.16015625 83.94921875 C-78.06652096 75.75798584 -85.54004033 63.73138388 -86.87548828 50.73925781 C-88.03626674 33.20750037 -83.84814883 19.1132446 -72.33984375 5.66015625 C-53.34757259 -14.49941396 -22.01210865 -16.4305914 0 0 Z M-65.65234375 23.91015625 C-65.65234375 36.78015625 -65.65234375 49.65015625 -65.65234375 62.91015625 C-62.35234375 62.91015625 -59.05234375 62.91015625 -55.65234375 62.91015625 C-55.32234375 57.63015625 -54.99234375 52.35015625 -54.65234375 46.91015625 C-51.18734375 46.41515625 -51.18734375 46.41515625 -47.65234375 45.91015625 C-47.15734375 54.32515625 -47.15734375 54.32515625 -46.65234375 62.91015625 C-39.47223534 63.50644104 -39.47223534 63.50644104 -36.65234375 61.91015625 C-36.65234375 49.37015625 -36.65234375 36.83015625 -36.65234375 23.91015625 C-39.95234375 23.91015625 -43.25234375 23.91015625 -46.65234375 23.91015625 C-46.98234375 28.53015625 -47.31234375 33.15015625 -47.65234375 37.91015625 C-49.63234375 38.24015625 -51.61234375 38.57015625 -53.65234375 38.91015625 C-55.59325201 36.96924799 -55.0515381 33.43721723 -55.21484375 30.84765625 C-55.34052734 28.91212891 -55.34052734 28.91212891 -55.46875 26.9375 C-55.52933594 25.93847656 -55.58992188 24.93945312 -55.65234375 23.91015625 C-58.95234375 23.91015625 -62.25234375 23.91015625 -65.65234375 23.91015625 Z M-28.65234375 23.91015625 C-28.65234375 36.12015625 -28.65234375 48.33015625 -28.65234375 60.91015625 C-24.29021727 62.65500684 -22.55038904 63.15482715 -18.1328125 63.10546875 C-17.21137451 63.10047363 -16.28993652 63.09547852 -15.34057617 63.09033203 C-13.60771362 63.06302002 -13.60771362 63.06302002 -11.83984375 63.03515625 C-8.14796875 62.99390625 -4.45609375 62.95265625 -0.65234375 62.91015625 C-0.65234375 50.04015625 -0.65234375 37.17015625 -0.65234375 23.91015625 C-3.95234375 23.91015625 -7.25234375 23.91015625 -10.65234375 23.91015625 C-10.64448853 25.26548462 -10.64448853 25.26548462 -10.63647461 26.64819336 C-10.61946689 29.98967114 -10.60691042 33.33110317 -10.59741211 36.67260742 C-10.59237274 38.12085698 -10.58554122 39.56910142 -10.5769043 41.01733398 C-10.56482128 43.09490213 -10.55911164 45.17240322 -10.5546875 47.25 C-10.54683228 49.12739868 -10.54683228 49.12739868 -10.53881836 51.04272461 C-10.65234375 53.91015625 -10.65234375 53.91015625 -11.65234375 54.91015625 C-14.65234375 55.03515625 -14.65234375 55.03515625 -17.65234375 54.91015625 C-18.65234375 53.91015625 -18.65234375 53.91015625 -18.76586914 51.04272461 C-18.76063232 49.79112549 -18.75539551 48.53952637 -18.75 47.25 C-18.74858505 46.5855336 -18.7471701 45.9210672 -18.74571228 45.23646545 C-18.74009893 43.10681726 -18.72754429 40.97727286 -18.71484375 38.84765625 C-18.70983046 37.40690256 -18.70526726 35.96614722 -18.70117188 34.52539062 C-18.6901252 30.98694523 -18.67285167 27.44856086 -18.65234375 23.91015625 C-21.95234375 23.91015625 -25.25234375 23.91015625 -28.65234375 23.91015625 Z " fill="#FFFFFF" transform="translate(275.65234375,107.08984375)"/>
<path d="M0 0 C1.10786362 -0.00287018 2.21572723 -0.00574036 3.35716248 -0.00869751 C5.69115716 -0.01073253 8.02516912 -0.00524215 10.35913086 0.00732422 C13.92535594 0.02340036 17.49045034 0.00744771 21.05664062 -0.01171875 C23.32942958 -0.00973652 25.60221783 -0.00589326 27.875 0 C29.46895348 -0.00910904 29.46895348 -0.00910904 31.09510803 -0.0184021 C37.68930036 0.04408002 42.22080102 0.74112951 47.41796875 5.125 C47.98 5.75148438 48.54203125 6.37796875 49.12109375 7.0234375 C49.6934375 7.63445312 50.26578125 8.24546875 50.85546875 8.875 C54.93973565 15.67509386 54.68463308 23.75679399 54.62109375 31.4609375 C54.63269531 32.87342773 54.63269531 32.87342773 54.64453125 34.31445312 C54.62398952 41.69406857 54.39418778 48.92831095 49.24609375 54.7109375 C48.70726563 55.34644531 48.1684375 55.98195312 47.61328125 56.63671875 C41.32469552 61.5777504 34.57646318 61.81110168 26.921875 61.734375 C24.91991857 61.74687709 22.91796542 61.75991372 20.91601562 61.7734375 C17.78886423 61.77737815 14.66203353 61.7733372 11.53491211 61.75878906 C8.49674919 61.75022751 5.45992027 61.77187077 2.421875 61.796875 C1.48845779 61.78353119 0.55504059 61.77018738 -0.40666199 61.75643921 C-4.65017214 61.80475724 -7.03443832 62.03274894 -10.70629883 64.29150391 C-13.44938783 68.72433573 -13.40882539 72.58850196 -13.44140625 77.7109375 C-13.46654297 78.64228516 -13.49167969 79.57363281 -13.51757812 80.53320312 C-13.57626623 82.82203936 -13.61267793 85.10897176 -13.62890625 87.3984375 C-12.84629929 87.39621689 -12.06369232 87.39399628 -11.25737 87.39170837 C-3.88551657 87.37167934 3.48632368 87.35645001 10.85819721 87.34662533 C14.64823377 87.3414046 18.43824786 87.3343216 22.22827148 87.32299805 C25.88518177 87.31214046 29.54207043 87.30615455 33.19899559 87.30356026 C34.594854 87.3017112 35.99071122 87.29810051 37.38656044 87.29270744 C39.34013339 87.28545906 41.29372806 87.28502912 43.24731445 87.28491211 C44.35984085 87.2826915 45.47236725 87.28047089 46.61860657 87.27818298 C49.37109375 87.3984375 49.37109375 87.3984375 52.37109375 88.3984375 C54.05859375 91.4609375 54.05859375 91.4609375 55.37109375 94.3984375 C54.71109375 94.3984375 54.05109375 94.3984375 53.37109375 94.3984375 C53.15453125 95.605 53.15453125 95.605 52.93359375 96.8359375 C52.37109375 99.3984375 52.37109375 99.3984375 51.37109375 100.3984375 C49.04474158 100.50928844 46.74778787 100.55581607 44.42041016 100.55957031 C43.69356522 100.56453522 42.96672028 100.56950012 42.21784973 100.57461548 C39.80277576 100.58927301 37.38776748 100.59604518 34.97265625 100.6015625 C33.29975379 100.60731121 31.62685137 100.61306897 29.95394897 100.61883545 C26.44162691 100.62935581 22.9293278 100.63519162 19.41699219 100.63867188 C14.91187343 100.64415737 10.40705681 100.66818206 5.90203285 100.69664383 C2.44482533 100.71524975 -1.01230916 100.72047472 -4.46956253 100.72200775 C-6.13058753 100.72503969 -7.79161107 100.7330864 -9.45258713 100.74619293 C-11.77510421 100.76321044 -14.0968798 100.76138404 -16.41943359 100.75488281 C-17.10838211 100.7640976 -17.79733063 100.77331238 -18.50715637 100.7828064 C-21.34971667 100.75782668 -23.19262851 100.7129694 -25.53718567 99.02267456 C-28.96153254 93.92800913 -27.81288015 86.38381008 -27.81640625 80.5234375 C-27.82865234 79.45996094 -27.84089844 78.39648438 -27.85351562 77.30078125 C-27.86930558 68.82683617 -27.02355681 61.3486008 -21.62890625 54.3984375 C-17.1167094 50.40133161 -13.14540711 48.28933176 -7.03735352 48.24072266 C-5.64559654 48.22532944 -5.64559654 48.22532944 -4.22572327 48.20962524 C-3.22568771 48.20232391 -2.22565216 48.19502258 -1.1953125 48.1875 C0.91862762 48.15943807 3.03255982 48.13077365 5.14648438 48.1015625 C8.48217605 48.06025058 11.81771863 48.02336557 15.15356445 47.99707031 C18.3709167 47.96950455 21.58759417 47.92364022 24.8046875 47.875 C25.80269882 47.87174713 26.80071014 47.86849426 27.82896423 47.86514282 C28.75995438 47.84857635 29.69094452 47.83200989 30.65014648 47.81494141 C31.46716537 47.80685455 32.28418427 47.7987677 33.1259613 47.79043579 C35.93292741 47.3003418 37.3067957 46.33896428 39.37109375 44.3984375 C40.84519573 39.97613155 40.59605204 35.65615333 40.62109375 31.0234375 C40.64171875 30.07726562 40.66234375 29.13109375 40.68359375 28.15625 C40.74445875 21.2736485 40.74445875 21.2736485 37.37109375 15.3984375 C35.07296621 14.24937373 33.72549628 14.25433374 31.16845703 14.22143555 C30.30060577 14.20860031 29.43275452 14.19576508 28.53860474 14.18254089 C27.59902924 14.17515396 26.65945374 14.16776703 25.69140625 14.16015625 C24.72709686 14.1520845 23.76278748 14.14401276 22.76925659 14.13569641 C20.72656047 14.1218527 18.68384119 14.11113183 16.64111328 14.10327148 C13.51550594 14.08604449 10.39095234 14.04215929 7.265625 13.99804688 C5.28255987 13.98792133 3.29948574 13.97940479 1.31640625 13.97265625 C0.38087921 13.95514816 -0.55464783 13.93764008 -1.51852417 13.91960144 C-6.71911189 13.88921382 -6.71911189 13.88921382 -11.22119141 16.2590332 C-12.98836313 18.94472967 -13.09378908 20.70277475 -13.12890625 23.8984375 C-13.43446181 29.10677083 -13.43446181 29.10677083 -15.37890625 32.0234375 C-17.95128537 33.59544696 -19.60317023 34.3227941 -22.62890625 34.3984375 C-25.74947321 32.66478919 -26.48222416 31.83848377 -27.62890625 28.3984375 C-28.44030825 20.62770297 -26.93616941 13.82437371 -22.56640625 7.3359375 C-21.92703125 6.6965625 -21.28765625 6.0571875 -20.62890625 5.3984375 C-19.96890625 5.3984375 -19.30890625 5.3984375 -18.62890625 5.3984375 C-18.62890625 4.7384375 -18.62890625 4.0784375 -18.62890625 3.3984375 C-12.39568979 0.08290851 -6.97907185 -0.03995974 0 0 Z " fill="#FFFFFF" transform="translate(30.62890625,99.6015625)"/>
<path d="M0 0 C0.63747488 5.68035648 1.05872876 11.28128712 1 17 C0.97945485 22.69100614 1.01905043 28.37408776 1.1875 34.0625 C1.19330078 34.88427734 1.19910156 35.70605469 1.20507812 36.55273438 C1.23408203 37.33068359 1.26308594 38.10863281 1.29296875 38.91015625 C1.31653442 39.94861694 1.31653442 39.94861694 1.34057617 41.00805664 C2.4342658 44.31180107 4.00320504 45.27420538 7 47 C10.33011112 47.55687197 13.60324818 47.51333693 16.97265625 47.4609375 C18.41275307 47.45956284 18.41275307 47.45956284 19.88194275 47.4581604 C21.90677856 47.45213095 23.93160572 47.43640471 25.95629883 47.41162109 C29.0551845 47.37508625 32.15287442 47.37060211 35.25195312 47.37109375 C37.2213645 47.36126306 39.19076778 47.34960627 41.16015625 47.3359375 C42.08627213 47.33371185 43.012388 47.33148621 43.96656799 47.32919312 C44.8310405 47.31643341 45.695513 47.30367371 46.58618164 47.29052734 C47.34387344 47.28290375 48.10156525 47.27528015 48.88221741 47.26742554 C51.36263363 46.954208 52.92496489 46.39944923 55 45 C57.55045091 37.37255776 57.16653382 29.77697983 57 21.8125 C56.94878349 19.34002312 56.9067875 16.86733423 56.875 14.39453125 C56.85179687 13.31018799 56.82859375 12.22584473 56.8046875 11.10864258 C57.08270967 6.68357228 57.8202221 3.1797779 61 0 C64.4375 -0.375 64.4375 -0.375 68 0 C70.83539497 2.47545555 71.00835408 4.08626214 71.3742218 7.86412048 C71.38898963 9.45483677 71.38715464 11.045759 71.37231445 12.63647461 C71.37596512 13.5068486 71.37961578 14.3772226 71.38337708 15.27397156 C71.391481 18.15029429 71.37787262 21.02605335 71.36328125 23.90234375 C71.36276258 25.9024709 71.36328055 27.90259857 71.36479187 29.90272522 C71.36470215 34.0949769 71.35427405 38.28703627 71.33618164 42.47924805 C71.31350926 47.85056868 71.31294781 53.22160793 71.31969929 58.59296322 C71.32304263 62.72366329 71.31640202 66.85429934 71.30657005 70.98498726 C71.30272298 72.965314 71.3015678 74.94564787 71.3031559 76.92597771 C71.30352718 79.6954998 71.29088815 82.46466277 71.2746582 85.23413086 C71.27713562 86.05143677 71.27961304 86.86874268 71.28216553 87.71081543 C71.19722668 96.80277332 71.19722668 96.80277332 68 100 C62.26388889 100.27314815 62.26388889 100.27314815 60 100 C56.9533018 96.9533018 57.02246639 94.70752225 56.88647461 90.42480469 C56.88663198 89.0071516 56.89222468 87.58949198 56.90234375 86.171875 C56.9037587 85.42286926 56.90517365 84.67386353 56.90663147 83.90216064 C56.91221341 81.51806588 56.92476255 79.13406622 56.9375 76.75 C56.94251734 75.13020969 56.94707984 73.51041791 56.95117188 71.890625 C56.96217692 67.92704688 56.97942909 63.96353955 57 60 C55.515 60.495 55.515 60.495 54 61 C52.39588738 61.10185334 50.78795642 61.14837861 49.18066406 61.16113281 C48.2024469 61.17074036 47.22422974 61.1803479 46.21636963 61.19024658 C44.63200104 61.1966214 44.63200104 61.1966214 43.015625 61.203125 C41.92666931 61.20882507 40.83771362 61.21452515 39.71575928 61.22039795 C37.40914888 61.22984941 35.10252498 61.23638251 32.79589844 61.24023438 C29.27775287 61.24992357 25.76019553 61.28093951 22.2421875 61.3125 C20.00000346 61.31903184 17.75781526 61.3242816 15.515625 61.328125 C14.4674762 61.3404718 13.41932739 61.3528186 12.3394165 61.36553955 C4.12477786 61.34065834 -1.91086205 59.92456665 -8 54 C-12.70383447 47.36395069 -13.16441172 41.26835594 -13.23828125 33.33984375 C-13.246353 32.51295547 -13.25442474 31.6860672 -13.26274109 30.8341217 C-13.2765268 29.09182806 -13.28727342 27.34950804 -13.29516602 25.60717773 C-13.30673415 23.82552174 -13.32726146 22.04390168 -13.35668945 20.26245117 C-13.399258 17.68384334 -13.41551433 15.10625876 -13.42578125 12.52734375 C-13.44328934 11.73247055 -13.46079742 10.93759735 -13.47883606 10.11863708 C-13.46476741 6.5391715 -13.32324595 4.43720122 -11.16479492 1.51782227 C-7.43684824 -1.09598675 -4.27047077 -1.42349026 0 0 Z " fill="#FFFFFF" transform="translate(107,100)"/>
</svg>
