<?xml version="1.0" encoding="UTF-8"?>
<svg version="1.1" xmlns="http://www.w3.org/2000/svg" width="300" height="300">
<path d="M0 0 C2.949375 -0.061875 5.89875 -0.12375 8.9375 -0.1875 C9.84749756 -0.21481201 10.75749512 -0.24212402 11.69506836 -0.27026367 C18.95482641 -0.34288468 25.35717342 0.69455554 30.9375 5.5625 C34.19354989 10.1187087 35.23420333 15.68602285 34.84375 21.2109375 C33.83501677 26.27400237 31.67056111 29.41480077 28 33 C24.43051361 34.74891703 21.43341465 35.28156152 17.48046875 35.4140625 C16.55903076 35.44967285 15.63759277 35.4852832 14.68823242 35.52197266 C13.53299072 35.55597168 12.37774902 35.5899707 11.1875 35.625 C7.495625 35.74875 3.80375 35.8725 0 36 C0 24.12 0 12.24 0 0 Z M11 9 C11 14.61 11 20.22 11 26 C18.37885134 26.73960026 18.37885134 26.73960026 21.4375 24.375 C23.37231132 21.4340868 23.92809193 19.52349544 24 16 C22.67583271 12.76314661 21.69269492 11.38280509 18.625 9.6875 C15.64611259 8.78886717 15.64611259 8.78886717 11 9 Z " fill="#FFFFFF" transform="translate(131,132)"/>
<path d="M0 0 C3.63 0 7.26 0 11 0 C11 3.96 11 7.92 11 12 C14.96 12 18.92 12 23 12 C23 8.04 23 4.08 23 0 C30.71484375 -0.09765625 30.71484375 -0.09765625 33 0 C34.7329298 1.7329298 34.12820046 3.96214336 34.13894653 6.27148438 C34.1369223 7.00689453 34.13489807 7.74230469 34.1328125 8.5 C34.13376923 9.25087891 34.13472595 10.00175781 34.13571167 10.77539062 C34.13639338 12.36588627 34.13453972 13.95638467 34.13037109 15.546875 C34.12502267 17.98964655 34.13031634 20.43223421 34.13671875 22.875 C34.13605797 24.41666707 34.1347768 25.95833403 34.1328125 27.5 C34.13483673 28.23541016 34.13686096 28.97082031 34.13894653 29.72851562 C34.11495161 34.88504839 34.11495161 34.88504839 33 36 C31.50261876 36.0979057 30.00057108 36.12974864 28.5 36.125 C27.6853125 36.12757813 26.870625 36.13015625 26.03125 36.1328125 C24 36 24 36 23 35 C22.92741054 32.81360547 22.91626217 30.62499611 22.9375 28.4375 C22.94652344 27.23996094 22.95554688 26.04242188 22.96484375 24.80859375 C22.97644531 23.88175781 22.98804688 22.95492187 23 22 C19.04 22 15.08 22 11 22 C11 26.62 11 31.24 11 36 C3.28515625 36.09765625 3.28515625 36.09765625 1 36 C0 35 0 35 -0.11352539 31.67358398 C-0.11336629 30.19774444 -0.10767314 28.72189931 -0.09765625 27.24609375 C-0.09553383 26.08292381 -0.09553383 26.08292381 -0.09336853 24.89625549 C-0.08775345 22.40996506 -0.07519846 19.9237634 -0.0625 17.4375 C-0.05748694 15.75586067 -0.0529237 14.07421994 -0.04882812 12.39257812 C-0.03777913 8.26168434 -0.02050445 4.13085724 0 0 Z " fill="#FFFFFF" transform="translate(222,132)"/>
<path d="M0 0 C3.34125 -0.061875 6.6825 -0.12375 10.125 -0.1875 C11.68758545 -0.22846802 11.68758545 -0.22846802 13.28173828 -0.27026367 C18.61507907 -0.31796522 22.41363731 -0.05022519 27 3 C30.16679501 6.58903435 30.56166733 10.07403784 30.4375 14.70703125 C29.68575383 18.6469866 27.56966384 20.98064499 25 24 C25.3609375 24.61488281 25.721875 25.22976562 26.09375 25.86328125 C26.5578125 26.67152344 27.021875 27.47976562 27.5 28.3125 C27.9640625 29.11300781 28.428125 29.91351563 28.90625 30.73828125 C30 33 30 33 30 36 C26.37 36 22.74 36 19 36 C18.38511719 34.82630859 18.38511719 34.82630859 17.7578125 33.62890625 C17.21898438 32.61699219 16.68015625 31.60507813 16.125 30.5625 C15.59132813 29.55316406 15.05765625 28.54382813 14.5078125 27.50390625 C13.24345886 24.89859558 13.24345886 24.89859558 11 24 C11.01160156 24.78246094 11.02320312 25.56492188 11.03515625 26.37109375 C11.04417969 27.38300781 11.05320312 28.39492187 11.0625 29.4375 C11.07410156 30.44683594 11.08570312 31.45617187 11.09765625 32.49609375 C11 35 11 35 10 36 C6.7 36 3.4 36 0 36 C0 24.12 0 12.24 0 0 Z M11 9 C11 10.98 11 12.96 11 15 C14.41642759 15.25015873 14.41642759 15.25015873 18 15 C18.66 14.01 19.32 13.02 20 12 C18.87890434 10.37506099 18.87890434 10.37506099 17 9 C13.87450983 8.74951364 13.87450983 8.74951364 11 9 Z " fill="#FFFFFF" transform="translate(60,132)"/>
<path d="M0 0 C3.3 0 6.6 0 10 0 C10 3.96 10 7.92 10 12 C14.29 12 18.58 12 23 12 C23 8.04 23 4.08 23 0 C30.71484375 -0.09765625 30.71484375 -0.09765625 33 0 C34.7329298 1.7329298 34.12820046 3.96214336 34.13894653 6.27148438 C34.1369223 7.00689453 34.13489807 7.74230469 34.1328125 8.5 C34.13376923 9.25087891 34.13472595 10.00175781 34.13571167 10.77539062 C34.13639338 12.36588627 34.13453972 13.95638467 34.13037109 15.546875 C34.12502267 17.98964655 34.13031634 20.43223421 34.13671875 22.875 C34.13605797 24.41666707 34.1347768 25.95833403 34.1328125 27.5 C34.13483673 28.23541016 34.13686096 28.97082031 34.13894653 29.72851562 C34.11495161 34.88504839 34.11495161 34.88504839 33 36 C29.66381769 36.14257189 26.34024394 36.04228157 23 36 C23 31.38 23 26.76 23 22 C18.71 22 14.42 22 10 22 C10 26.62 10 31.24 10 36 C3.06640625 36.09765625 3.06640625 36.09765625 1 36 C0 35 0 35 -0.11352539 31.67358398 C-0.11336629 30.19774444 -0.10767314 28.72189931 -0.09765625 27.24609375 C-0.09553383 26.08292381 -0.09553383 26.08292381 -0.09336853 24.89625549 C-0.08775345 22.40996506 -0.07519846 19.9237634 -0.0625 17.4375 C-0.05748694 15.75586067 -0.0529237 14.07421994 -0.04882812 12.39257812 C-0.03777913 8.26168434 -0.02050445 4.13085724 0 0 Z " fill="#FFFFFF" transform="translate(5,132)"/>
<path d="M0 0 C4.80057617 2.59377536 8.01556803 6.13654785 9.73046875 11.28125 C10.43650562 18.08946271 10.54833989 24.01362284 6.328125 29.65625 C1.74929464 34.31344665 -2.88898589 35.52352819 -9.33203125 35.78125 C-16.11205687 35.53330455 -19.74378614 33.80699511 -24.58203125 28.96875 C-27.97454708 23.56585442 -28.71637113 18.62853897 -27.80859375 12.421875 C-26.42076543 6.91078864 -22.81217544 3.42615751 -18.26953125 0.28125 C-12.65529488 -1.59016212 -5.67238672 -1.79641851 0 0 Z M-14.58203125 9.84375 C-16.82124377 13.07816808 -17.20076748 15.36171521 -17.26953125 19.28125 C-15.68114191 22.85512602 -14.55318767 24.09214572 -11.26953125 26.28125 C-7.93016851 26.10235557 -5.29348593 25.89562281 -2.39453125 24.15625 C-0.58816226 21.14563501 -0.32877831 18.77682632 -0.26953125 15.28125 C-2.49932793 11.02326624 -2.49932793 11.02326624 -6.26953125 8.28125 C-9.78872136 7.89872934 -11.61089162 7.83622322 -14.58203125 9.84375 Z " fill="#FFFFFF" transform="translate(195.26953125,132.71875)"/>
<path d="M0 0 C1.65322266 0.01740234 1.65322266 0.01740234 3.33984375 0.03515625 C4.44457031 0.04417969 5.54929687 0.05320313 6.6875 0.0625 C7.54214844 0.07410156 8.39679688 0.08570313 9.27734375 0.09765625 C12.87050978 6.83896315 15.47740547 13.77967073 18.02734375 20.97265625 C18.43855469 22.1121875 18.84976563 23.25171875 19.2734375 24.42578125 C22.27734375 32.82873495 22.27734375 32.82873495 22.27734375 35.09765625 C18.6032359 36.27337076 15.10805192 36.17132371 11.27734375 36.09765625 C10.78234375 33.62265625 10.78234375 33.62265625 10.27734375 31.09765625 C3.84234375 31.59265625 3.84234375 31.59265625 -2.72265625 32.09765625 C-3.05265625 33.08765625 -3.38265625 34.07765625 -3.72265625 35.09765625 C-7.68265625 35.09765625 -11.64265625 35.09765625 -15.72265625 35.09765625 C-13.52040588 27.43240417 -10.91881367 19.99302239 -8.09765625 12.53515625 C-7.48664063 10.89836914 -7.48664063 10.89836914 -6.86328125 9.22851562 C-3.43675879 0.12326968 -3.43675879 0.12326968 0 0 Z M3.27734375 13.09765625 C1.79234375 17.05765625 1.79234375 17.05765625 0.27734375 21.09765625 C2.25734375 21.09765625 4.23734375 21.09765625 6.27734375 21.09765625 C5.61734375 18.45765625 4.95734375 15.81765625 4.27734375 13.09765625 C3.94734375 13.09765625 3.61734375 13.09765625 3.27734375 13.09765625 Z " fill="#FFFFFF" transform="translate(106.72265625,131.90234375)"/>
<path d="M0 0 C3.63 0 7.26 0 11 0 C11.03738281 1.62550781 11.07476562 3.25101563 11.11328125 4.92578125 C11.17893106 7.05471096 11.24537874 9.18361617 11.3125 11.3125 C11.33505859 12.38435547 11.35761719 13.45621094 11.38085938 14.56054688 C11.41630859 15.58857422 11.45175781 16.61660156 11.48828125 17.67578125 C11.51446533 18.62364502 11.54064941 19.57150879 11.56762695 20.5480957 C12.06832353 23.38744956 12.69193474 24.31766304 15 26 C17.54230847 26.41679297 17.54230847 26.41679297 20 26 C24.18536611 21.81463389 23.3068519 14.80756727 23.5625 9.1875 C23.60568359 8.30384766 23.64886719 7.42019531 23.69335938 6.50976562 C23.79891536 4.34000377 23.89991071 2.1700209 24 0 C27.3 0 30.6 0 34 0 C34.05834395 3.87493616 34.09371201 7.74975836 34.125 11.625 C34.14175781 12.71941406 34.15851563 13.81382812 34.17578125 14.94140625 C34.25143521 27.42430918 34.25143521 27.42430918 30.5625 31.64453125 C23.9599474 36.57993932 19.17380981 36.54757557 11 36 C6.21450201 34.404834 3.76600648 32.20023206 1 28 C-0.07368571 24.76188636 -0.11572052 21.75545721 -0.09765625 18.359375 C-0.09443359 17.28945312 -0.09121094 16.21953125 -0.08789062 15.1171875 C-0.07951172 14.00601563 -0.07113281 12.89484375 -0.0625 11.75 C-0.05798828 10.62335938 -0.05347656 9.49671875 -0.04882812 8.3359375 C-0.03705411 5.55726894 -0.019119 2.77862773 0 0 Z " fill="#FFFFFF" transform="translate(261,132)"/>
<path d="M0 0 C3.3 0 6.6 0 10 0 C10 11.88 10 23.76 10 36 C6.7 36 3.4 36 0 36 C0 24.12 0 12.24 0 0 Z " fill="#FFFFFF" transform="translate(44,132)"/>
<path d="M0 0 C2 2 2 2 2.3125 5.4375 C2 9 2 9 0.875 10.9375 C-1.88980433 12.50422245 -3.88188517 12.38976435 -7 12 C-8.875 10.9375 -8.875 10.9375 -10 9 C-10.4375 5.5 -10.4375 5.5 -10 2 C-7.00303875 -1.6885677 -4.34072074 -1.22672543 0 0 Z " fill="#FFFFFF" transform="translate(217,156)"/>
</svg>
